<svg width="92" height="50" viewBox="0 0 92 50" fill="none" xmlns="http://www.w3.org/2000/svg">
<path d="M17.2119 31.5789C18.3822 31.5789 19.2219 31.3732 19.7309 30.9565C20.24 30.545 20.4971 30.0512 20.4971 29.4751C20.4971 28.9452 20.2977 28.5132 19.8936 28.1839C19.4948 27.8547 18.9018 27.577 18.1198 27.3403L16.3933 26.8002C15.223 26.4196 14.1891 25.9926 13.2865 25.5297C12.3891 25.0616 11.6911 24.4598 11.2031 23.7139C10.715 22.9732 10.4736 22.0267 10.4736 20.8848C10.4736 19.1255 11.1558 17.7264 12.5203 16.6822C13.8848 15.6431 15.7845 15.1236 18.2143 15.1236C19.4528 15.1236 20.5496 15.2419 21.5152 15.4734C22.4809 15.71 23.2366 16.0495 23.7928 16.5073C24.3439 16.9651 24.622 17.5206 24.622 18.1791C24.622 18.6677 24.5066 19.0844 24.2809 19.4342C24.0552 19.784 23.7666 20.0875 23.4202 20.3395C22.9217 20 22.2604 19.7068 21.4365 19.465C20.6126 19.2233 19.6995 19.0998 18.7024 19.0998C17.7053 19.0998 16.8813 19.2644 16.3618 19.5936C15.8422 19.9228 15.5798 20.3498 15.5798 20.8848C15.5798 21.3117 15.753 21.6563 16.0994 21.9187C16.4458 22.1862 16.9653 22.4228 17.6633 22.6337L19.4528 23.1738C21.426 23.7705 22.9427 24.5575 24.008 25.5451C25.0681 26.5328 25.6034 27.8496 25.6034 29.5059C25.6034 31.2857 24.9001 32.7363 23.4885 33.8474C22.0768 34.9636 20.0406 35.5191 17.3746 35.5191C16.0522 35.5191 14.8714 35.3802 13.827 35.1076C12.7827 34.835 11.9588 34.4286 11.3395 33.8988C10.7203 33.369 10.4106 32.7517 10.4106 32.0521C10.4106 31.5018 10.5786 31.0285 10.9144 30.6376C11.2503 30.2466 11.6229 29.9534 12.0375 29.7631C12.6253 30.2312 13.3547 30.6479 14.2311 31.0182C15.1075 31.3886 16.0994 31.5738 17.2067 31.5738L17.2119 31.5789Z" fill="#004E89"/>
<path d="M34.6036 20.4886L34.6298 23.4052H27.0728C26.9573 23.2612 26.8629 23.0606 26.7894 22.8085C26.7159 22.5565 26.6792 22.2839 26.6792 21.9958C26.6792 21.4711 26.7947 21.0853 27.0361 20.8487C27.2722 20.6121 27.5871 20.4886 27.9754 20.4886H34.6036V20.4886ZM30.9615 22.7622H34.7033V34.9636C34.5406 35.0099 34.2939 35.0562 33.9686 35.0973C33.6432 35.1385 33.3073 35.159 32.9662 35.159C32.2315 35.159 31.7172 35.0304 31.4128 34.7784C31.1084 34.5212 30.9615 34.0788 30.9615 33.441V22.7725V22.7622ZM31.1557 23.4104L31.1294 20.4938H38.6864C38.7861 20.6378 38.8754 20.8384 38.9541 21.0905C39.038 21.3477 39.0748 21.6152 39.0748 21.9032C39.0748 22.4125 38.9541 22.7931 38.7179 23.04C38.4818 23.2869 38.1616 23.4104 37.7523 23.4104H31.1504H31.1557Z" fill="#004E89"/>
<path d="M44.9942 28.8835H41.2524V20.4372C41.4309 20.4063 41.6828 20.3652 42.0081 20.3189C42.3335 20.2726 42.6589 20.2469 42.9843 20.2469C43.6875 20.2469 44.1965 20.3652 44.5114 20.607C44.8315 20.8436 44.989 21.3014 44.989 21.9701V28.8835H44.9942ZM47.6602 35.3905C46.3219 35.3905 45.1779 35.1539 44.2228 34.6858C43.2676 34.2126 42.5382 33.5593 42.0239 32.7105C41.5096 31.8669 41.2524 30.8793 41.2524 29.7425V28.1633H44.9942V29.6448C44.9942 30.5244 45.2409 31.2034 45.7394 31.692C46.238 32.1807 46.8782 32.4225 47.6602 32.4225C48.4421 32.4225 49.0823 32.1807 49.5809 31.692C50.0794 31.2034 50.3261 30.5244 50.3261 29.6448V28.1633H54.0679V29.7425C54.0679 30.8742 53.816 31.8618 53.3122 32.7105C52.8084 33.5541 52.0737 34.2126 51.1133 34.6858C50.1529 35.1539 49.0036 35.3905 47.6654 35.3905H47.6602ZM54.0679 28.9298H50.3261V20.4372C50.5045 20.4063 50.7617 20.3652 51.0975 20.3189C51.4282 20.2726 51.7535 20.2469 52.0632 20.2469C52.7664 20.2469 53.2754 20.3652 53.5903 20.607C53.9104 20.8436 54.0679 21.3014 54.0679 21.9701V28.9298Z" fill="#FF6B35"/>
<path d="M69.9483 31.9441C69.2713 33.0758 68.3267 33.9245 67.1092 34.4903C65.8969 35.0562 64.4747 35.3391 62.8426 35.3391C62.3073 35.3391 61.6461 35.3031 60.8642 35.2311C60.0822 35.159 59.3737 35.0099 58.7387 34.7887C57.8886 34.4852 57.4688 33.9502 57.4688 33.1838V21.7489C57.4688 21.43 57.558 21.1882 57.7364 21.0185C57.9148 20.8487 58.151 20.7098 58.4449 20.6018C59.0956 20.3961 59.7988 20.2572 60.5493 20.1955C61.2997 20.1337 61.982 20.0977 62.6012 20.0977C64.2805 20.0977 65.7447 20.3703 66.9885 20.9207C68.2375 21.4711 69.2083 22.3044 69.9116 23.4207C70.6148 24.5369 70.9611 25.9463 70.9611 27.6541C70.9611 29.3619 70.62 30.8022 69.9483 31.9338V31.9441ZM66.5739 25.1027C66.2065 24.4186 65.7027 23.9042 65.0572 23.5596C64.4117 23.2149 63.6665 23.0452 62.8216 23.0452C62.5277 23.0452 62.2444 23.0555 61.9767 23.0812C61.7091 23.1069 61.4362 23.1326 61.158 23.1635V32.227C61.4047 32.2733 61.6776 32.3093 61.9872 32.335C62.2968 32.3608 62.5907 32.371 62.8689 32.371C64.1546 32.371 65.1884 31.9801 65.9599 31.1982C66.7313 30.4164 67.1197 29.259 67.1197 27.7313C67.1197 26.6613 66.936 25.7869 66.5686 25.0976L66.5739 25.1027Z" fill="#004E89"/>
<path d="M77.3952 29.4596H73.6797V20.4423C73.8424 20.4115 74.089 20.3703 74.4249 20.324C74.7608 20.2777 75.0914 20.252 75.4167 20.252C76.1147 20.252 76.6238 20.3703 76.9334 20.6121C77.243 20.8487 77.4005 21.3065 77.4005 21.9752V29.4647L77.3952 29.4596ZM73.6797 24.8661H77.3952V34.9584C77.2483 35.0047 77.0121 35.051 76.6867 35.0922C76.3614 35.1333 76.0255 35.1539 75.6844 35.1539C74.9497 35.1539 74.4354 35.0253 74.131 34.7732C73.8266 34.516 73.6797 34.0737 73.6797 33.4358V24.8712V24.8661Z" fill="#FF6B35"/>
<path d="M81.0162 30.9873L89.7697 20.4166H90.8927C91.512 20.9104 91.8216 21.5637 91.8216 22.3764C91.8216 22.7417 91.7377 23.0966 91.575 23.4309C91.4123 23.7653 91.2024 24.0945 90.94 24.4134L82.2337 34.9841H80.9112C80.6646 34.7938 80.4651 34.5315 80.3129 34.192C80.1608 33.8576 80.082 33.4821 80.082 33.0655C80.082 32.7157 80.1713 32.3607 80.3497 32.0007C80.5281 31.6406 80.7485 31.3011 81.0109 30.9822L81.0162 30.9873ZM90.1843 20.4166L88.8146 23.4052H80.696C80.5963 23.2458 80.5019 23.04 80.4127 22.7931C80.3234 22.5462 80.2762 22.2684 80.2762 21.9701C80.2762 21.4454 80.3969 21.0545 80.6436 20.7973C80.8902 20.5401 81.2208 20.4166 81.6459 20.4166H90.179H90.1843ZM81.4045 34.9841L83.1416 31.9955H91.5802C91.6799 32.155 91.7691 32.3607 91.8636 32.6179C91.9528 32.8751 92.0001 33.1529 92.0001 33.4564C92.0001 33.9811 91.8794 34.372 91.6432 34.6189C91.407 34.8658 91.0764 34.9893 90.6513 34.9893H81.4098L81.4045 34.9841Z" fill="#FF6B35"/>
<path d="M42.6538 37.4378C42.6066 37.4995 42.15 38.0808 42.3967 37.7773C42.234 37.9727 42.0713 38.1734 41.9034 38.3637C41.5517 38.7752 41.1791 39.1713 40.7961 39.5571C40.0561 40.3029 39.2584 41.0076 38.4187 41.6455C38.7126 41.4243 38.2298 41.7792 38.1459 41.8358C37.9359 41.985 37.726 42.129 37.5109 42.273C37.0543 42.5765 36.5872 42.8594 36.1097 43.1321C35.6583 43.3841 35.1965 43.6259 34.7295 43.8522C34.4933 43.9654 34.2571 44.0734 34.021 44.1763C33.9003 44.2277 33.7796 44.2792 33.6641 44.3306C33.8688 44.2483 33.7638 44.2894 33.6221 44.346C32.604 44.7318 31.5702 45.0662 30.5101 45.3182C29.9906 45.4417 29.4658 45.5497 28.9358 45.6371C28.8046 45.6577 28.6681 45.6783 28.5369 45.6989C28.4844 45.7092 28.0646 45.7606 28.3113 45.7297C28.5369 45.704 28.201 45.74 28.1853 45.74C27.9806 45.7606 27.7812 45.7812 27.5765 45.8018C26.5217 45.8943 25.4616 45.9149 24.4068 45.8635C23.924 45.8429 23.4412 45.8069 22.9584 45.7555C22.8377 45.7452 22.717 45.7297 22.6015 45.7143C22.6802 45.7246 23.0318 45.776 22.6278 45.7143C22.3601 45.6732 22.0977 45.632 21.8353 45.5857C20.8802 45.416 19.9356 45.1845 19.0067 44.8964C18.5921 44.7678 18.1775 44.6238 17.7682 44.4746C17.6842 44.4438 17.086 44.2123 17.2906 44.2946C17.5425 44.3923 17.2014 44.2586 17.1437 44.2329C17.0125 44.1763 16.8813 44.1197 16.7501 44.058C15.8894 43.667 15.0498 43.2247 14.2416 42.7308C13.8742 42.5097 13.5174 42.2782 13.1658 42.0364C12.9768 41.9078 12.7932 41.7741 12.6095 41.6403C12.2946 41.414 12.5675 41.6095 12.6252 41.6558C12.5098 41.5683 12.3996 41.4809 12.2894 41.3934C11.5546 40.8122 10.8619 40.1898 10.2059 39.5262C9.88581 39.2073 9.58143 38.8729 9.2823 38.5386C9.13536 38.3688 8.98842 38.1991 8.84147 38.0242C8.75226 37.9162 8.37966 37.4378 8.64205 37.7773C7.5085 36.2804 6.53764 34.6807 5.79243 32.9626C5.97086 33.3741 5.71896 32.7774 5.67698 32.6642C5.60351 32.4791 5.53528 32.2887 5.46706 32.1036C5.29913 31.6458 5.15219 31.1777 5.01574 30.7096C4.7481 29.7888 4.54343 28.8526 4.39649 27.9061C4.38599 27.8393 4.33876 27.4689 4.37025 27.7415C4.40173 28.0142 4.35975 27.6438 4.3545 27.5769C4.33351 27.3712 4.31252 27.1654 4.29153 26.9597C4.2443 26.4247 4.21806 25.8897 4.20756 25.3496C4.19182 24.3929 4.23905 23.4361 4.34401 22.4845C4.3545 22.3662 4.37025 22.2479 4.38599 22.1347C4.37549 22.2119 4.32302 22.5565 4.38599 22.1604C4.42273 21.9289 4.45946 21.6975 4.50144 21.466C4.58541 21.0082 4.68512 20.5555 4.79533 20.1029C5.02099 19.1821 5.30962 18.2768 5.65074 17.392C5.68223 17.3097 5.91838 16.7233 5.83442 16.9239C5.75045 17.1245 6.00235 16.5484 6.04433 16.4661C6.249 16.0289 6.46941 15.5968 6.70032 15.175C7.1359 14.3828 7.61871 13.6164 8.1435 12.8757C8.2747 12.6905 8.41114 12.5105 8.54759 12.3304C8.7785 12.0218 8.57908 12.2893 8.53185 12.3459C8.60007 12.2584 8.67354 12.171 8.74701 12.0835C9.05139 11.7132 9.36626 11.3531 9.69164 10.9982C10.3266 10.314 11.0036 9.67104 11.7121 9.06406C11.8643 8.93547 12.0165 8.81201 12.1687 8.68341C12.2369 8.62683 12.7354 8.24618 12.5622 8.37478C12.3891 8.50338 12.8981 8.13302 12.9716 8.08672C13.1815 7.93755 13.3914 7.79352 13.6066 7.65464C14.3938 7.14025 15.2177 6.67215 16.0626 6.25035C16.451 6.06003 16.8445 5.87999 17.2381 5.71024C17.6003 5.55078 17.2854 5.68967 17.2172 5.72053C17.3274 5.67938 17.4323 5.63309 17.5425 5.59193C17.7839 5.49934 18.0306 5.40675 18.2772 5.32445C19.1904 5.00553 20.1245 4.74834 21.0691 4.54258C21.5362 4.44485 22.0033 4.3574 22.4703 4.28539C22.591 4.26481 22.7065 4.24938 22.8272 4.23395C22.8009 4.23395 22.4651 4.2751 22.717 4.24938C22.9846 4.22366 23.2575 4.1928 23.5252 4.16708C24.5485 4.07963 25.5771 4.0642 26.6057 4.10535C27.1147 4.12592 27.629 4.16708 28.1381 4.22366C28.2325 4.23395 28.327 4.24423 28.4215 4.25452C28.0174 4.21337 28.348 4.24423 28.4267 4.25452C28.7363 4.30082 29.046 4.35226 29.3556 4.40884C30.3317 4.58887 31.2973 4.83064 32.2472 5.13413C32.7143 5.2833 33.1761 5.4479 33.6326 5.62794C33.7481 5.67424 33.8583 5.71539 33.9738 5.76168C33.895 5.73082 33.6117 5.60222 33.9738 5.76683C34.2257 5.87999 34.4723 5.98801 34.719 6.10632C35.6216 6.53841 36.4928 7.02194 37.3272 7.56205C37.705 7.80895 38.0776 8.061 38.4397 8.32849C38.487 8.36449 38.7913 8.59082 38.5867 8.43651C38.382 8.28219 38.6864 8.51367 38.7284 8.54967C38.9383 8.71428 39.1482 8.88917 39.3529 9.05892C40.0823 9.67619 40.7751 10.3397 41.4206 11.0445C41.7459 11.3942 42.0555 11.7595 42.3599 12.1247C42.6118 12.4282 42.4124 12.1916 42.3652 12.1247C42.4386 12.2173 42.5121 12.315 42.5803 12.4076C42.743 12.6236 42.9005 12.8397 43.0527 13.0609C43.6194 13.8685 44.1285 14.7172 44.585 15.5917C44.8055 16.0186 45.0101 16.4507 45.2095 16.8879C45.0469 16.5381 45.2673 17.032 45.3145 17.1451C45.4142 17.3972 45.5087 17.6544 45.6031 17.9064C45.9705 18.9198 47.0516 19.7016 48.1851 19.3416C49.2032 19.0175 50.0429 17.8961 49.6493 16.8108C46.6107 8.50338 39.2164 2.01693 30.2582 0.427465C21.3 -1.162 12.557 1.73916 6.63735 8.16388C0.717695 14.5886 -1.46544 23.6779 0.995834 31.9801C3.37839 40.0097 9.90155 46.4653 18.0463 48.9241C27.1515 51.6709 37.4006 49.027 43.9658 42.2679C44.8002 41.4089 45.5612 40.4778 46.2749 39.5211C46.9256 38.6517 46.4533 37.1909 45.5192 36.7073C44.4276 36.1415 43.3413 36.517 42.6486 37.4481L42.6538 37.4378Z" fill="#FF6B35"/>
<path d="M36.3041 41.8821L43.0266 48.4715L43.9818 49.4076C44.7585 50.1689 46.1859 50.2255 46.9521 49.4076C47.7183 48.5898 47.7813 47.3089 46.9521 46.4962L40.2295 39.9069L39.2744 38.9707C38.4977 38.2094 37.0703 38.1528 36.3041 38.9707C35.5379 39.7886 35.4749 41.0694 36.3041 41.8821Z" fill="#FF6B35"/>
</svg>
