<svg version="1.1" xmlns="http://www.w3.org/2000/svg" xmlns:xlink="http://www.w3.org/1999/xlink" viewBox="0 0 172 172">
    <g fill="none" fill-rule="nonzero" stroke="none" stroke-width="1" stroke-linecap="butt" stroke-linejoin="miter" stroke-miterlimit="10" stroke-dashoffset="0" font-family="none" font-weight="none" font-size="none" text-anchor="none" style="mix-blend-mode: normal">
        <path d="M0,172v-172h172v172z" fill="none" />
        <g>
            <path d="M127.7147,66.73533c4.49216,1.4835 5.00144,3.67919 5.77208,7.00094c0.42798,1.84295 3.05367,1.84228 3.48166,0c1.27992,-5.51744 3.16386,-6.14027 5.77208,-7.00094c1.62862,-0.53817 1.63266,-2.8548 0,-3.39364c-2.50542,-0.82506 -4.46192,-1.35853 -5.77208,-7.00161c-0.42664,-1.83892 -3.05569,-1.83355 -3.48098,0c-1.28127,5.51744 -3.06778,6.10802 -5.77208,7.00228c-1.6293,0.5375 -1.63266,2.85345 -0.00067,3.39297z" fill="#000000" />
            <path d="M29.25948,66.73533c4.49216,1.4835 5.00144,3.67919 5.77208,7.00094c0.42798,1.84295 3.05367,1.84228 3.48166,0c1.27992,-5.51744 3.16386,-6.14027 5.77208,-7.00094c1.62862,-0.53817 1.63266,-2.8548 0,-3.39364c-2.50542,-0.82506 -4.46192,-1.35853 -5.77208,-7.00161c-0.42664,-1.83892 -3.05569,-1.83355 -3.48098,0c-1.28127,5.51744 -3.06778,6.10802 -5.77208,7.00228c-1.6293,0.5375 -1.63266,2.85345 -0.00067,3.39297z" fill="#000000" />
            <rect x="31.67" y="207.56" transform="scale(0.67188,0.67188)" width="192.66" height="37.48" fill="#f0c020" />
            <rect x="31.67" y="207.56" transform="scale(0.67188,0.67188)" width="192.66" height="7" fill="#e8a61e" />
            <path d="M152.06748,139.45438h-132.13497c-1.85505,0 -3.35937,-1.50433 -3.35937,-3.35937v-4.58152c0,-1.85505 1.50433,-3.35937 3.35938,-3.35937h132.13564c1.85505,0 3.35938,1.50433 3.35938,3.35938v4.58152c-0.00067,1.85505 -1.50433,3.35938 -3.36005,3.35938z" fill="#f0c020" />
            <path d="M124.90156,95.32495v14.96938h-25.84031c-7.16891,0 -12.98734,5.77813 -13.06797,12.93359c-0.08062,-7.15547 -5.89906,-12.93359 -13.06797,-12.93359h-25.82687v-14.96937c0,-16.72297 13.55844,-30.28141 30.28141,-30.28141h17.24031c16.76328,0 30.28141,13.59203 30.28141,30.28141z" fill="#72c2e9" />
            <path d="M54.75714,92.68113c-0.91106,-0.17536 -1.50769,-1.05552 -1.33233,-1.96658c0.13572,-0.70681 0.30503,-1.41497 0.50323,-2.10566c0.25598,-0.89158 1.18586,-1.40623 2.07811,-1.15159c0.89158,0.25598 1.40691,1.18653 1.15159,2.07811c-0.17066,0.59461 -0.31645,1.20467 -0.43336,1.81272c-0.17536,0.90636 -1.05014,1.50702 -1.96725,1.333zM57.40567,84.39086c-0.77803,-0.50592 -0.99841,-1.54598 -0.49316,-2.32402c4.53113,-6.97272 12.18244,-11.13498 20.46733,-11.13498c0.92786,0 1.67969,0.75183 1.67969,1.67969c0,0.92786 -0.75183,1.67969 -1.67969,1.67969c-7.14338,0 -13.74186,3.59117 -17.65083,9.60647c-0.50659,0.77938 -1.54867,0.99639 -2.32334,0.49316z" fill="#c5e5fe" />
            <rect x="163.77" y="146.659" transform="scale(0.67188,0.67188)" width="22.13" height="17.502" fill="#ffb69f" />
            <rect x="163.77" y="157.029" transform="scale(0.67188,0.67188)" width="22.13" height="7.132" fill="#ea8f7c" />
            <path d="M108.75506,25.48153l-2.52894,2.56656h-40.45225v-5.86009c0,-5.11834 4.16428,-9.17647 9.18386,-9.17647h21.81242c3.33855,0 6.20073,-2.37709 6.82155,-5.64778l3.66441,2.50609c5.23122,3.56564 5.98842,11.07653 1.49895,15.61169z" fill="#7c7b7a" />
            <path d="M108.27333,36.80061h-2.05191l-0.00269,0.00538v-8.75789h-40.45225v8.76192h-2.03108c-3.22903,0 -5.82583,2.60553 -5.82583,5.81709c0,3.21156 2.60553,5.81709 5.82583,5.81709h2.35627v0.00067c1.94575,11.11416 10.87967,16.59598 19.83644,16.59598c9.02462,0 18.07209,-5.57992 19.98022,-16.59598v-0.00067h2.365c3.2203,0 5.81709,-2.61427 5.81709,-5.81709c0,-3.22097 -2.60553,-5.8265 -5.81709,-5.8265z" fill="#ffb69f" />
            <rect x="70.1" y="146.659" transform="scale(0.67188,0.67188)" width="22.23" height="17.502" fill="#ffb69f" />
            <rect x="70.1" y="157.029" transform="scale(0.67188,0.67188)" width="22.23" height="7.132" fill="#ea8f7c" />
            <path d="M137.9487,65.09394c-0.98766,0.69875 -1.87453,1.62594 -2.64047,2.98313c-0.63828,-1.06828 -1.51172,-2.07609 -2.80172,-2.95625c1.04141,-0.71219 1.97531,-1.68641 2.76812,-3.1175c0.80625,1.45125 1.72672,2.41203 2.67406,3.09063z" fill="#f0c020" />
            <path d="M39.49348,65.09394c-0.98766,0.69875 -1.87453,1.62594 -2.64047,2.98313c-0.63828,-1.06828 -1.51172,-2.07609 -2.80172,-2.95625c1.04141,-0.71219 1.97531,-1.68641 2.76812,-3.1175c0.80625,1.45125 1.72672,2.41203 2.67406,3.09063z" fill="#f0c020" />
            <path d="M129.06047,113.5677v11.32109c0,1.80734 -1.45797,3.26531 -3.26531,3.26531h-79.60375c-1.80734,0 -3.26531,-1.45797 -3.26531,-3.26531v-11.32109c0,-1.80734 1.45797,-3.27203 3.26531,-3.27203h26.73391c7.16891,0 12.98734,5.77813 13.06797,12.93359c0.08062,-7.15547 5.89906,-12.93359 13.06797,-12.93359h26.73391c1.80734,0 3.26531,1.46469 3.26531,3.27203z" fill="#efefef" />
            <path d="M129.06047,113.56636v11.32109c0,1.80734 -1.45797,3.26531 -3.26531,3.26531h-79.60375c-1.80734,0 -3.26531,-1.45797 -3.26531,-3.26531v-11.32109c0,-1.80734 1.45797,-3.27203 3.26531,-3.27203h26.73391c7.16891,0 12.98734,5.77813 13.06797,12.93359c0.08062,-7.15547 5.89906,-12.93359 13.06797,-12.93359h26.73391c1.80734,0 3.26531,1.46469 3.26531,3.27203z" fill="#efefef" />
            <g fill="#000000">
                <path d="M152.10108,126.47644c-0.01209,0 -0.02352,-0.00336 -0.03628,-0.00336h-3.13094c-0.92719,0 -1.67969,0.75922 -1.67969,1.67969c0,0.92719 0.7525,1.67969 1.67969,1.67969h3.11414c0.00672,0 0.01277,0.00202 0.01948,0.00202c0.92584,0 1.67969,0.75317 1.67969,1.67969v4.58084c0,0.92652 -0.75384,1.67969 -1.67969,1.67969c-4.72798,0 -123.78692,0 -132.13564,0c-0.92584,0 -1.67969,-0.75317 -1.67969,-1.67969v-4.58084c0,-0.92652 0.75384,-1.67969 1.67969,-1.67969c0.00672,0 0.01277,-0.00202 0.01948,-0.00202c2.75738,0 110.59533,0 115.54503,0c0.92047,0 1.67969,-0.7525 1.67969,-1.67969c0,-0.92047 -0.75922,-1.67969 -1.67969,-1.67969h-5.02159c0.16931,-0.49786 0.26472,-1.02931 0.26472,-1.58361v-11.32244c0,-2.46175 -1.80533,-4.50358 -4.15891,-4.88252c0,-7.81995 0,-8.36216 0,-13.36023c0,-16.58591 -12.69978,-30.25655 -28.88458,-31.80992c4.47402,-2.67406 8.12566,-7.07484 9.58295,-13.39181h0.9937c4.13405,0 7.49678,-3.36273 7.49678,-7.49611c0,-4.13875 -3.36273,-7.50619 -7.49678,-7.50619h-0.37491v-6.37609l2.05056,-2.0808c5.21912,-5.27287 4.35912,-14.01934 -1.74486,-18.18027l-3.66441,-2.50542c-0.99773,-0.68397 -2.37306,-0.11489 -2.59814,1.07366c-0.47098,2.48056 -2.64584,4.28119 -5.17142,4.28119c-0.0047,0 -0.00873,0.00134 -0.01277,0.00134h-6.34317c-0.92719,0 -1.68641,0.7525 -1.68641,1.67969c0,0.92786 0.75922,1.67969 1.68641,1.67969h6.35594c0.00672,0 0.01344,-0.00202 0.02016,-0.00202c3.2942,-0.00739 6.22156,-1.88394 7.66139,-4.7038l1.85841,1.27052c4.37189,2.98044 4.99673,9.25978 1.24902,13.04512l-2.03511,2.06534h-38.06978v-4.18041c0,-4.13136 3.36273,-7.49208 7.49745,-7.49611c0.00336,0 0.00672,0.00067 0.01008,0.00067h2.00891c0.92719,0 1.67969,-0.75183 1.67969,-1.67969c0,-0.92719 -0.7525,-1.67969 -1.67969,-1.67969h-1.9995c-0.0047,0 -0.00873,-0.00134 -0.01277,-0.00134c-5.99044,0 -10.86355,4.86975 -10.86355,10.85548c0,7.70977 -0.00739,2.97708 -0.00739,12.94233h-0.35139c-4.13875,0 -7.50552,3.36341 -7.50552,7.49678c0,4.13338 3.36677,7.49611 7.50552,7.49611h0.98967c1.47275,6.32167 5.10558,10.72178 9.54398,13.3945c-5.78888,0.55362 -11.25391,2.65122 -15.95703,6.15505c-0.74578,0.55094 -0.90031,1.60645 -0.34266,2.35156c0.52406,0.7142 1.5648,0.92248 2.34484,0.34333c4.96516,-3.68859 10.86422,-5.64375 17.06562,-5.64375h17.24031c15.77092,0 28.60172,12.8308 28.60172,28.60172v1.52986h-11.5072v-3.36273c0,-0.92786 -0.75183,-1.67969 -1.67969,-1.67969c-0.92786,0 -1.67969,0.75183 -1.67969,1.67969c0,7.31067 0,1.56816 0,15.12189h-9.29405c-5.64845,0 -10.59413,3.23105 -13.06797,7.94223c-2.47452,-4.71186 -7.41952,-7.94223 -13.06797,-7.94223h-9.21208c0,-13.53358 0,-7.84011 0,-15.12189c0,-0.92786 -0.75183,-1.67969 -1.67969,-1.67969c-0.92786,0 -1.67969,0.75183 -1.67969,1.67969v3.36273h-11.57573v-1.52986c0,-0.00067 0,-0.00134 0,-0.00269c0.00067,-4.67558 1.1563,-9.31084 3.3325,-13.40794c0.43672,-0.82036 0.12094,-1.83422 -0.69203,-2.27161c-0.80491,-0.42395 -1.83556,-0.13773 -2.27094,0.69203c-2.43891,4.58219 -3.72891,9.76906 -3.72891,14.9902c0,0.00134 0,0.00202 0,0.00336c0,0.13975 -0.00269,3.02277 -0.00269,13.35486c-2.35895,0.37423 -4.16966,2.41875 -4.16966,4.88453v11.32177c0,0.5543 0.09608,1.08575 0.26472,1.58361h-21.57659c-0.01209,0 -0.02419,0.00336 -0.03628,0.00336c-2.76275,0.01881 -5.0048,2.27027 -5.0048,5.03772v4.58084c0,2.666 2.08214,4.84892 4.70514,5.02227v23.51966c0,0.92786 0.75183,1.67969 1.67969,1.67969c0.92786,0 1.67969,-0.75183 1.67969,-1.67969v-23.50219h126.08406v23.50219c0,0.92786 0.75183,1.67969 1.67969,1.67969c0.92786,0 1.67969,-0.75183 1.67969,-1.67969v-23.51966c2.623,-0.17334 4.70514,-2.35627 4.70514,-5.02227v-4.58084c0,-2.76812 -2.24205,-5.01958 -5.00547,-5.03772zM107.90111,38.4803h0.37222c2.28169,0 4.13741,1.86042 4.13741,4.14681c0,2.28169 -1.85639,4.13673 -4.13741,4.13673h-0.44612c0.0262,-0.31914 0.07391,-1.34509 0.07391,-1.84295zM63.73541,46.76384c-2.28639,0 -4.14614,-1.85572 -4.14614,-4.13673c0,-2.28102 1.85975,-4.13741 4.14614,-4.13741h0.35139v6.43455c0,0.62081 0.02822,1.23087 0.07928,1.82683c0.00067,0.00403 0.00067,0.00873 0.00067,0.01277zM67.44953,44.92089c0,-3.83103 -0.00336,-11.36208 -0.00336,-15.19311h37.09288v15.19647c0,10.78158 -8.28556,18.43625 -18.61094,18.43625c-11.11348,0 -18.47858,-8.38231 -18.47858,-18.43961zM127.38078,113.56703v11.32177c0,0.86806 -0.70077,1.57353 -1.56614,1.58361h-37.65187c1.27723,-2.48527 4.90738,-5.56716 9.12809,-5.56716h12.6205c0.92786,0 1.67969,-0.75183 1.67969,-1.67969c0,-0.92786 -0.75183,-1.67969 -1.67969,-1.67969h-12.6205c-3.61805,0 -7.02177,1.64878 -9.43716,3.89016c0.93055,-5.35552 5.6162,-9.46067 11.20822,-9.46067c9.39617,0 16.82241,0 26.73391,0c0.87344,0 1.58495,0.7142 1.58495,1.59167zM111.714,100.21419h11.50787v8.39978h-11.5072v-8.39978zM60.35386,100.21419v8.39978h-11.57573v-8.39978zM44.60578,124.8888v-11.32177c0,-0.87814 0.71152,-1.59167 1.58563,-1.59167c13.48386,0 13.24938,0 26.73391,0c5.59538,0 10.28372,4.11053 11.21023,9.47075c-2.41606,-2.24675 -5.82448,-3.90023 -9.44858,-3.90023h-12.54458c-0.92786,0 -1.67969,0.75183 -1.67969,1.67969c0,0.92786 0.75183,1.67969 1.67969,1.67969h12.54525c4.22005,0 7.85086,3.08189 9.12809,5.56716h-37.64381c-0.86538,-0.01008 -1.56614,-0.71555 -1.56614,-1.58361z" />
                <path d="M93.46453,52.0085c0.3225,-0.87344 -0.12094,-1.84027 -0.98766,-2.16344c-0.84656,-0.32183 -1.84766,0.14109 -2.16344,0.98094c-0.67187,1.78719 -2.40531,2.98984 -4.31344,2.98984c-1.91484,0 -3.655,-1.20266 -4.32016,-2.98313c-0.30906,-0.84656 -1.31016,-1.30948 -2.15672,-0.98766c-0.42328,0.15453 -0.7525,0.46359 -0.94063,0.87344c-0.18812,0.4038 -0.20828,0.86 -0.04703,1.28328v0.00672c1.14891,3.0913 4.14547,5.16672 7.46453,5.16672c3.30562,0.00067 6.30891,-2.08214 7.46453,-5.16672z" />
                <path d="M76.58367,36.70722c-0.92786,0 -1.67969,0.75183 -1.67969,1.67969v1.19056c0,0.92786 0.75183,1.67969 1.67969,1.67969c0.92786,0 1.67969,-0.75183 1.67969,-1.67969v-1.19056c0,-0.92786 -0.75183,-1.67969 -1.67969,-1.67969z" />
                <path d="M95.40759,41.25716c0.92786,0 1.67969,-0.75183 1.67969,-1.67969v-1.19056c0,-0.92786 -0.75183,-1.67969 -1.67969,-1.67969c-0.92786,0 -1.67969,0.75183 -1.67969,1.67969v1.19056c0,0.92786 0.75183,1.67969 1.67969,1.67969z" />
                <path d="M85.99597,46.69128c0.92786,0 1.67969,-0.75183 1.67969,-1.67969v-5.43413c0,-0.92786 -0.75183,-1.67969 -1.67969,-1.67969c-0.92786,0 -1.67969,0.75183 -1.67969,1.67969v5.43413c0,0.92786 0.75183,1.67969 1.67969,1.67969z" />
                <circle cx="211.67" cy="190.738" transform="scale(0.67188,0.67188)" r="2.5" />
                <circle cx="124.56" cy="19.368" transform="scale(0.67188,0.67188)" r="2.5" />
                <path d="M55.685,76.68714c0.60469,-0.69875 0.52406,-1.76703 -0.18141,-2.37172c-0.67187,-0.57714 -1.78047,-0.49719 -2.35828,0.17469c-0.00672,0 -0.00672,0.00739 -0.00672,0.00739c-0.60469,0.69875 -0.52406,1.76703 0.17469,2.37105c0.71286,0.60469 1.76166,0.51734 2.37172,-0.18141z" />
            </g>
        </g>
    </g>
</svg>