<?xml version="1.0" encoding="utf-8"?>
<!-- Generator: Adobe Illustrator 26.2.1, SVG Export Plug-In . SVG Version: 6.00 Build 0)  -->
<svg version="1.1" xmlns="http://www.w3.org/2000/svg" xmlns:xlink="http://www.w3.org/1999/xlink" x="0px" y="0px"
	 viewBox="0 0 512 507.9" style="enable-background:new 0 0 512 507.9;" xml:space="preserve">
<style type="text/css">
	.st0{fill:#FFFFFF;}
	.st1{fill:#9D6B6B;}
	.st2{fill:#E17D47;}
	.st3{fill:#FEDCCD;}
	.st4{fill:#FECABD;}
	.st5{fill:#8B5E5E;}
	.st6{fill:#9C6B6B;}
	.st7{fill:#EAF2FD;}
	.st8{fill:#DCE8F9;}
	.st9{fill:#E0EBFA;}
	.st10{fill:#E3936B;}
	.st11{fill:#5866CA;}
	.st12{fill:#DBE8F9;}
	.st13{fill:#4352C1;}
	.st14{fill:#D57181;}
	.st15{fill:#E9AFA5;}
	.st16{fill:#315169;}
	.st17{fill:#2E4F67;}
	.st18{fill:#E9AC9D;}
	.st19{fill:#D47181;}
	.st20{fill:#EBF3FE;}
	.st21{fill:#DCE8F8;}
	.st22{fill:#EAF2FE;}
	.st23{fill:#EAF1FC;}
</style>
<g id="Layer_2">
	<circle class="st0" cx="260.8" cy="253.9" r="253.8"/>
</g>
<g id="Layer_1">
	<g id="a">
	</g>
	<g id="b">
		<g id="c">
			<g>
				<path class="st1" d="M512,90.1v25c-1.5,6.1-2.7,12.2-4.5,18.2c-5.3,17.9-16.1,32.3-29.7,44.8c-8.7-0.5-14.9,3.4-18.9,11.1v-32.7
					c-57-1.1-110-12.1-156-46.3c-2.7-2.7-2.2,0.3-2.5,1.5c-1.2,4.6-2.2,9.1-3.3,13.7c-1-1.1-2-2.2-3.1-3.2
					c-19.6-15.5-26-38.4-17.2-61.5c0.6-1.7,0.8-3.5,1.2-5.3c1.4-1.3,3-2.4,4.2-3.9c10.3-13.6,22.2-25.7,36.2-35.5
					c17.9-12.5,37.4-18.1,59.4-15c19.4,2.8,36.8,10.2,53.1,20.5c11.9,7.6,23.6,15.6,35.7,22.8c10,5.9,20.6,7.5,31.9-0.6
					c2.9,8.3,6,16,8.3,23.9C508.9,74.9,510.3,82.6,512,90.1L512,90.1z"/>
				<path class="st2" d="M44,333.9c-16.8-9.8-29.9-23.1-37.4-41.3C4,286,2.2,279,0,272.1c0-51.3,0-102.7,0-154
					c1.3-5.9,2.5-11.8,4-17.7C19.3,40.4,72.3,2,126.9,0.2c-7.3,3.7-14.2,7.8-19.4,14.4C91.9,34.7,85.7,58.5,81.1,82.8
					c-4.3,22.8-4.4,46-4.2,69.1c-13.7,1.8-27.3,3.8-41,5.4c-4.5,0.5-6.2,1.8-6.1,6.7c0.3,17,0,34,0.2,51c0.2,17.6,6,33.2,17,46.9
					c8.5,10.7,19.7,17.7,31.9,23.3c0.3,2.8,0.3,5.6,0.9,8.4c1.3,6.7,2.9,13.3,4.4,20c-0.1,0.2-0.2,0.5-0.4,0.6
					c-5.6,2.4-11.3,4.7-16.9,7.1c-0.4,0.3-0.7,0.6-1.1,0.9l0.2-0.2l-0.2-0.1c-5.1,2.6-10.2,5.2-15.3,7.7
					C48.4,331,46.2,332.4,44,333.9L44,333.9z"/>
				<path class="st3" d="M458.1,230c-1.9,4.8-3.4,9.7-5.7,14.3c-14.5,29.7-38.2,44.9-71.5,44.8c-42.8,2.1-76.5-30.9-79-71.1
					c3.3-4,3.3-7.9,0-11.9l0.2-12.6c5.7,3.4,9.7,2.5,12.5-3.4c3.5-7.1,3.5-14.5-0.3-21.6c-2.7-5.2-6-6-11.5-3.6
					c-0.3-1.6-0.9-3.2-0.9-4.8c-0.1-15.1-0.1-30.2,0-45.4c0-1.6,0.6-3.2,0.9-4.8c46,34.2,99,45.2,156,46.3c0,10.9,0,21.8,0,32.7
					l0.1,8.1c0,6.3,0,12.5-0.1,18.8C458.7,220.7,458.4,225.3,458.1,230L458.1,230z M355.4,248.4c7.7,0.1,13.8-2.3,18.9-7
					c3.8-3.5,4.2-8.1,1.2-11.5c-2.9-3.3-7-3.6-11.2-0.7c-6.9,4.7-10.1,4.7-17.1-0.1c-4.1-2.8-8.4-2.5-11.2,0.9
					c-3,3.5-2.5,8,1.4,11.5C342.6,246.2,348.8,248.7,355.4,248.4L355.4,248.4z M423.8,223.2c4.4-1.6,9.1-2.7,13.1-5.1
					c4.4-2.6,4.6-7.5,1.3-11.1c-6.3-6.9-23-6.7-29.2,0.4c-3,3.3-2.8,6.5,0.2,9.7C413.2,221.2,418.1,222.3,423.8,223.2L423.8,223.2z
					 M414.9,179.9c-1.6-4.5-2.6-8.9-4.8-12.6c-3-5-8.3-4.9-11.9-0.4c-5.1,6.3-5,19.5,0.1,25.7c3.6,4.4,8.6,4.6,11.6-0.2
					C412.2,188.8,413.2,184.3,414.9,179.9L414.9,179.9z"/>
				<path class="st4" d="M301.9,218c2.4,40.1,36.2,73.1,79,71.1c-0.3,4.4-0.6,8.7-0.8,13.1c-8.8,0-17.6-0.1-26.5,0
					c-6.5,0-7.5,1.5-6.1,7.8c1.9,9.1,7.8,14.8,15.5,19.1l-7,1.6c-0.3,0.1-0.6,0.2-1,0.2c-0.8-0.3-1.5-0.6-2.3-0.8
					c-13.1-2.6-20.6-10.8-21.8-24.1c0-3.6-0.1-7.3,0.2-11c0.4-4.5-1.3-6.2-5.9-6.1c-10.3,0.2-20-2.6-29.3-6.9
					c-11.6-5.3-20.8-13.6-28.9-23.1l0-105.1c14.3-5.1,24.9-14.1,30.1-28.7c1.1-4.6,2.2-9.2,3.3-13.7c0.3-1.2-0.1-4.2,2.5-1.5
					c-0.3,1.6-0.9,3.2-0.9,4.8c-0.1,15.1-0.1,30.2,0,45.4c0,1.6,0.6,3.2,0.9,4.8c-6.8,8.8-7.1,18.8-0.7,28.5
					c-0.1,4.2-0.1,8.4-0.2,12.6c-5.7-3.8-12-4.7-18.6-3.9c-6.5,0.7-12.2,5.4-12.2,9.9c0,4.5,5.8,9.2,12.2,9.9
					C289.9,222.7,296.3,221.8,301.9,218L301.9,218z"/>
				<path class="st5" d="M297.1,125.3c-5.2,14.6-15.9,23.6-30.1,28.7c-0.1-6.3-0.1-12.6-0.2-18.9c-0.3-24.4-5.7-47.5-18.2-68.5
					c-4.1-7-9.1-13.5-13.7-20.2c15.1-0.7,29.4,3,43.1,9c-0.4,1.8-0.6,3.6-1.2,5.3c-8.7,23.2-2.3,46,17.2,61.5
					C295.1,123,296.1,124.2,297.1,125.3L297.1,125.3z"/>
				<path class="st4" d="M458.1,230c0.3-4.6,0.7-9.3,1-13.9c2.3-1.5,4.5-3.1,7-4.4c2.4-1.2,5-2.8,7.4-2.7c5.2,0,8.7-1.7,9.4-5.9
					c0.8-4.3-1.7-7.2-6.7-8.9c-6.4-2.2-11.6,0.9-17.1,3.2l-0.1-8.1c3.9-7.7,10.1-11.5,18.9-11.1c12.3,5.1,16.6,17.2,11.2,31
					C483.8,222.2,472.5,229.8,458.1,230L458.1,230z"/>
				<path class="st5" d="M467.2,463.2v44.7h-435v-44.8c-4.3,0-8.1,0.1-11.9,0c-6.6-0.1-11.1-4.1-11.4-10.7c-0.3-5.3-0.3-10.7,0-16
					c0.3-6.1,4.4-10,10.6-10.5c3.8-0.3,7.6-0.3,11.5-0.5c2.4,0.2,4.7,0.4,7.1,0.5c-5.6,3.6-7.8,8.7-7.1,15.4c0.4,3.5,0.1,7,0.1,10.5
					c-0.1,5,2.3,8.4,6.8,10c2.7,1,5.8,1.2,8.8,1.2c104.9,0.1,209.8,0,314.7,0C396.6,463.1,431.9,463.1,467.2,463.2L467.2,463.2z"/>
				<path class="st6" d="M467.2,463.2c-35.3,0-70.6-0.1-105.9-0.1c-104.9,0-209.8,0-314.7,0c-2.9,0-6-0.2-8.8-1.2
					c-4.5-1.6-6.9-5-6.8-10c0.1-3.5,0.3-7-0.1-10.5c-0.7-6.6,1.5-11.7,7.1-15.4l15-0.3c6.7,0,13.4,0,20.1,0
					c29.1,0.1,58.2,0.2,87.3,0.2c11,0,22-0.2,32.9-0.2c13.9,0,27.8,0,41.6,0l17.9,0c7.7,0,15.4,0,23,0c6.6,0,13.1,0,19.7,0
					c18.3,0.1,36.6,0.2,54.9,0.2c21.8,0,43.6-0.1,65.4-0.2c14,0,28.1,0,42.1,0c6.6,0.1,13.3,0.1,19.9,0.2c8,0.1,12.3,4.2,12.6,12.2
					c0.2,4.3,0.2,8.6,0,13c-0.4,7.7-4.8,11.9-12.4,12C474.5,463.2,470.9,463.2,467.2,463.2L467.2,463.2z"/>
				<path d="M415.9,425.7c-21.8,0.1-43.6,0.2-65.4,0.2c-18.3,0-36.6-0.2-54.9-0.2c0.6-3.8,1.3-7.5,1.9-11.3
					c2.1-11.9,6.3-23.4,4.5-35.8c-2.4-15.7-6.8-30.4-19.1-41.5c0-0.3,0-0.6,0-0.9c1.8-4.9,3.5-9.8,5.3-14.7c5.9-2.5,11.9-5,17.8-7.5
					c0.7,1.7,1.4,3.4,2,5.1c5,13.6,10.1,27.3,15.1,41c4.9,7.3,9.9,14.7,14.8,22c4.6,4.8,9.3,9.5,13.8,14.3c2.7,2.8,5.2,3,8,0.1
					c4.6-4.8,9.3-9.4,14-14.1c6.9-8.8,13.7-17.4,17.3-28.3c4.4-13.4,9.4-26.6,14.1-39.9c11,5.3,22.1,10.6,33.1,16
					c-19.7,10.8-32.8,39.4-28.6,63.4C411.4,404.3,413.8,415,415.9,425.7L415.9,425.7z"/>
				<path class="st7" d="M415.9,425.7c-2.1-10.7-4.5-21.4-6.4-32.2c-4.1-24,8.9-52.6,28.6-63.4c6.1,3,9.7,8.2,10.7,14.6
					c2.3,15.1,4.3,30.2,6,45.3c1.3,11.8,2.1,23.7,3.1,35.6C444,425.7,430,425.7,415.9,425.7L415.9,425.7z"/>
				<path class="st8" d="M53,425.7l-15,0.3c-2.4-0.2-4.7-0.4-7.1-0.5c2.5-23.7,4.8-47.5,7.7-71.1c0.8-6.9,3.6-13.6,5.4-20.5
					c2.2-1.5,4.3-3,6.5-4.4c3.5,2.4,6.9,4.8,10.4,7.2l0.4,1.2c-0.8,2.8-1.9,5.6-2.2,8.5c-0.9,8.4-1.7,16.8-2.3,25.2
					C55.5,389.7,54.3,407.7,53,425.7L53,425.7z"/>
				<path class="st9" d="M405.1,314.2c-4.7,13.3-9.7,26.5-14.1,39.9c-3.6,10.9-10.4,19.6-17.3,28.3c-4.4-5.5-8.6-11-13.1-16.4
					c-2.1-2.5-1.9-4,0.4-6.2c4.1-4,8-8.3,12.2-12.9c-5.7-5.3-11.5-10.8-17.3-16.2c2.3-0.5,4.6-1.1,7-1.6c11-3.8,16.6-11.5,17.4-23
					C388.6,308.8,396.9,311.5,405.1,314.2L405.1,314.2z"/>
				<path class="st3" d="M380.3,306c-0.7,11.5-6.4,19.2-17.4,23c-7.7-4.3-13.5-10.1-15.5-19.1c-1.3-6.3-0.3-7.8,6.1-7.8
					c8.8,0,17.6,0,26.5,0C380.2,303.4,380.2,304.7,380.3,306L380.3,306z"/>
				<path class="st10" d="M234.9,46.3c4.6,6.7,9.5,13.2,13.7,20.2c12.6,21.1,17.9,44.2,18.2,68.5c0.1,6.3,0.1,12.6,0.2,18.9
					c0,35,0,70.1,0,105.1c-1.7,9.5-2.3,19.2-5.2,28.3c-6.7,20.9-20.9,36-39.8,46.7c-2-1.4-3.9-2.8-5.9-4.2
					c-11.2-5.2-22.4-10.5-33.5-15.8c-8.2-2.7-16.3-5.4-24.5-8.1l-0.2-3.9c0.1-4.3,0.2-8.6,0.3-12.9c5.3-0.4,10.7-0.4,15.9-1.2
					c33.6-5.1,60.9-35.4,62-69.2c0.6-19.1,0.1-38.3,0.3-57.5c0-2.8-1.1-4-3.6-5.1c-5-2.2-10.1-4.4-14.6-7.4
					c-13.6-9.1-23.2-21.8-31.5-35.7c-0.9-1.5-1.9-2.9-3-4.6c-17,15-36.6,23.8-57.1,30.4c-15.3,4.9-31.1,8.6-46.7,12.9l-3,0.1
					c-0.2-23.1-0.2-46.3,4.2-69.1c4.6-24.3,10.8-48.1,26.5-68.2c5.2-6.7,12.1-10.8,19.4-14.4c41-1.5,75.6,12.8,104,42.2
					C232.2,43.8,233.5,45,234.9,46.3L234.9,46.3z"/>
				<path class="st11" d="M182.6,314.1c11.2,5.2,22.4,10.5,33.5,15.8c-7.5,4-13.7,9.5-18.1,16.8c-10,16.6-13.8,34.4-9.6,53.6
					c1.8,8.5,3.4,17,5.1,25.4c-11,0.1-22,0.3-32.9,0.2c-29.1,0-58.2-0.1-87.3-0.2c1.7-8.3,3.1-16.7,5.1-25
					c2.1-8.9,2.5-17.8,0.8-26.8c-2.7-13.6-7-26.4-17.6-36.1c-0.1-0.4-0.3-0.8-0.4-1.2c1.6-5,3.3-10,4.9-15l0.2,0.1l-0.2,0.2
					c0.4-0.3,0.7-0.6,1.1-0.9c5.6-2.4,11.3-4.7,16.9-7.1c5.7,15.7,11.4,31.4,17.1,47c4.9,7.1,9.7,14.2,14.6,21.3
					c4.9,4.9,9.8,9.8,14.7,14.7c2.2,2.3,4.2,2,6.3-0.1c4.8-5,9.7-9.9,14.6-14.8c4.9-7.4,9.9-14.7,14.8-22.1
					C171.5,344.8,177,329.5,182.6,314.1L182.6,314.1z"/>
				<path class="st4" d="M76.9,151.9c1,0,2-0.1,3-0.1c0,6.6,0.1,13.2,0.1,19.8c-2.2,0.1-4.6-0.3-6.4,0.6c-1.9,1-4.5,3.1-4.5,4.8
					c0,2,2.1,4.3,3.7,6.1c0.7,0.8,2.5,0.6,2.7,0.6c1.6,6.1,3.1,11.6,4.6,17.1c0,3.1-0.1,6.2-0.1,9.3c-6.3-1.4-12.8-1.7-18.3,1.9
					c-2.5,1.6-5.2,5-5.2,7.5c0,2.5,3,6.6,5.4,7.2c6.1,1.6,12.7,1.6,19,2.2c3.2,13.9,9.1,26.4,19.1,36.6
					c15.9,16.4,35.3,24.2,58.2,23.7c-0.1,4.3-0.2,8.6-0.3,12.9c-9,0-17.9-0.1-26.9,0c-5.6,0-6.3,0.8-5.9,6.4
					c0.1,1.6,0.6,3.2,1.1,4.8c2.3,7.3,8.1,11.5,13.9,15.7c-2,0.6-4,1.1-6.1,1.7c-0.3,0-0.6,0-0.9-0.1c-4.1-1.3-8.4-2-12.2-3.9
					c-8.4-4.2-11.1-12.2-12.8-20.7c0-4.3,0.2-8.6-0.2-12.9c-0.1-1.4-1.8-3.5-3.2-3.8c-8.6-1.7-17.2-2.9-25.8-4.3
					c-12.2-5.6-23.4-12.6-31.9-23.3c-11-13.7-16.9-29.3-17-46.9c-0.2-17,0.2-34-0.2-51c-0.1-4.8,1.6-6.1,6.1-6.7
					C49.7,155.7,63.3,153.7,76.9,151.9L76.9,151.9z"/>
				<path class="st12" d="M108.1,306.1c1.6,8.5,4.4,16.6,12.8,20.7c3.8,1.9,8.1,2.6,12.2,3.9c-5.8,5.8-11.6,11.6-17.4,17.4l-14.7,13
					c-5.7-15.7-11.4-31.4-17-47c0.2-0.2,0.3-0.4,0.4-0.6C92.2,311,100.2,308.5,108.1,306.1L108.1,306.1z"/>
				<path class="st10" d="M108.1,306.1c-7.9,2.5-15.9,4.9-23.8,7.4c-1.5-6.6-3.1-13.3-4.4-20c-0.6-2.8-0.6-5.6-0.9-8.4
					c8.6,1.4,17.2,2.6,25.8,4.3c1.3,0.2,3,2.4,3.2,3.8C108.4,297.4,108.1,301.8,108.1,306.1L108.1,306.1z"/>
				<path class="st13" d="M65.8,321.7c-1.6,5-3.3,10-4.9,15c-3.5-2.4-6.9-4.8-10.4-7.2C55.6,326.9,60.7,324.3,65.8,321.7z"/>
				<path class="st13" d="M67,321.2c-0.4,0.3-0.7,0.6-1.1,0.9C66.3,321.8,66.7,321.5,67,321.2z"/>
				<path class="st14" d="M355.4,248.4c-6.5,0.3-12.7-2.2-18-7c-3.9-3.5-4.4-8-1.4-11.5c2.8-3.4,7.1-3.7,11.2-0.9
					c7.1,4.8,10.2,4.8,17.1,0.1c4.2-2.9,8.3-2.6,11.2,0.7c3,3.4,2.6,8-1.2,11.5C369.1,246.1,363,248.5,355.4,248.4L355.4,248.4z"/>
				<path class="st15" d="M301.9,218c-5.7,3.8-12,4.7-18.6,3.9c-6.5-0.7-12.2-5.4-12.2-9.9c0-4.4,5.8-9.2,12.2-9.9
					c6.6-0.7,13,0.2,18.6,3.9C305.2,210.1,305.2,214.1,301.9,218L301.9,218z"/>
				<path class="st15" d="M423.9,223.2c-5.8-0.9-10.6-2.1-14.5-6.1c-3-3.2-3.2-6.4-0.2-9.7c6.2-7,22.9-7.2,29.2-0.4
					c3.3,3.6,3.1,8.6-1.3,11.1C433,220.5,428.3,221.6,423.9,223.2L423.9,223.2z"/>
				<path class="st16" d="M414.9,179.9c-1.7,4.4-2.7,8.9-5,12.5c-3,4.8-8,4.6-11.6,0.2c-5.1-6.2-5.2-19.4-0.1-25.7
					c3.6-4.5,8.9-4.6,11.9,0.4C412.3,171,413.3,175.4,414.9,179.9L414.9,179.9z"/>
				<path class="st17" d="M302.2,193.6c-6.4-9.7-6.1-19.7,0.7-28.5c5.5-2.5,8.8-1.6,11.5,3.6c3.7,7.1,3.7,14.4,0.3,21.6
					C311.9,196.1,307.9,197,302.2,193.6L302.2,193.6z"/>
				<path class="st18" d="M459.1,197.2c5.5-2.3,10.7-5.4,17.1-3.2c5,1.8,7.5,4.6,6.7,8.9c-0.7,4.2-4.2,5.9-9.4,5.9
					c-2.5,0-5.1,1.5-7.4,2.7c-2.5,1.2-4.7,2.9-7,4.4C459.1,209.8,459.1,203.5,459.1,197.2L459.1,197.2z"/>
				<path class="st19" d="M356,330.7c5.8,5.5,11.6,10.9,17.3,16.2c-4.3,4.5-8.1,8.9-12.2,12.9c-2.3,2.2-2.5,3.7-0.4,6.2
					c4.5,5.3,8.7,10.9,13.1,16.4c-4.7,4.7-9.4,9.4-14,14.2c-2.8,2.9-5.3,2.7-8-0.1c-4.6-4.8-9.2-9.5-13.8-14.3
					c5.1-6.4,10.1-12.7,15.5-19.4c-5.3-5-10.4-9.8-15.4-14.6l17-17.2C355.3,330.9,355.7,330.8,356,330.7L356,330.7z"/>
				<path class="st12" d="M355,330.9c-5.7,5.7-11.4,11.5-17,17.2c-5,4-9.9,8-14.9,12c-5-13.6-10-27.3-15.1-41
					c-0.6-1.7-1.3-3.4-2-5.1c8.3-2.7,16.6-5.3,24.9-8c1.2,13.2,8.7,21.4,21.8,24.1C353.5,330.3,354.2,330.7,355,330.9L355,330.9z"/>
				<path class="st20" d="M222,334c6.6,9.2,6.3,20.2,7.5,30.6c2.4,20.3,3.8,40.7,5.6,61c-13.9,0-27.8,0-41.6,0
					c-1.7-8.5-3.2-17-5.1-25.4c-4.1-19.2-0.4-37,9.6-53.6c4.4-7.3,10.6-12.8,18.1-16.8C218,331.3,220,332.6,222,334L222,334z"/>
				<path class="st21" d="M253,425.7c0.7-7.3,1.2-14.5,2.1-21.8c2.4-20,4.6-39.9,7.4-59.8c0.9-6.3,4.5-11.4,10.7-14.1
					c3.3,2.1,6.6,4.1,9.9,6.2c0,0.3,0,0.6,0,0.9c-0.3,1.4-0.8,2.9-1,4.3c-0.8,7.9-1.6,15.8-2.1,23.8c-1.4,20.2-2.6,40.4-3.9,60.5
					C268.3,425.7,260.6,425.7,253,425.7L253,425.7z"/>
				<path class="st22" d="M276,425.7c1.3-20.2,2.5-40.4,3.9-60.5c0.5-7.9,1.4-15.9,2.1-23.8c0.1-1.5,0.6-2.9,1-4.3
					c12.3,11.1,16.7,25.8,19.1,41.5c1.9,12.4-2.3,24-4.5,35.8c-0.7,3.8-1.3,7.5-1.9,11.3C289.1,425.7,282.6,425.7,276,425.7
					L276,425.7z"/>
				<path class="st22" d="M61.3,337.9c10.6,9.7,15,22.5,17.6,36.1c1.8,9,1.3,17.8-0.8,26.8c-1.9,8.3-3.4,16.6-5.1,25
					c-6.7,0-13.4,0-20.1,0c1.2-18,2.5-36,3.8-54c0.6-8.4,1.3-16.9,2.3-25.2C59.4,343.5,60.6,340.7,61.3,337.9z"/>
				<path class="st23" d="M323.1,360.1c5-4,9.9-8,14.9-12c5,4.8,10.1,9.6,15.4,14.6c-5.3,6.7-10.4,13.1-15.5,19.4
					C333,374.8,328,367.5,323.1,360.1L323.1,360.1z"/>
				<path class="st13" d="M283,336.3c-3.3-2.1-6.6-4.1-9.9-6.2c5-2.8,10.1-5.7,15.1-8.5C286.5,326.5,284.7,331.4,283,336.3
					L283,336.3z"/>
				<path class="st3" d="M158.2,289.2c-22.8,0.6-42.3-7.3-58.2-23.7c-10-10.3-15.9-22.8-19.1-36.6c0.8-0.5,1.7-1.1,2.5-1.6
					c7.9-4.8,7.8-11.4-0.2-15.8c-1-0.6-2.1-1-3.1-1.5c0-3.1,0.1-6.2,0.1-9.3c6.3,5.4,11.5,4.3,14.6-3.5c2.5-6.4,2.5-13-0.4-19.4
					c-1.9-4.2-5-6.5-9.8-6.1c-1.5,0.1-3-0.1-4.5-0.2c0-6.6-0.1-13.2-0.1-19.8c15.6-4.3,31.3-8,46.7-12.9
					c20.5-6.6,40.1-15.4,57.1-30.4c1.1,1.7,2.1,3.1,3,4.6c8.3,13.8,17.9,26.6,31.5,35.7c4.5,3,9.6,5.3,14.6,7.4
					c2.5,1.1,3.6,2.4,3.6,5.1c-0.1,19.1,0.3,38.3-0.3,57.5c-1.1,33.9-28.4,64.1-62,69.2C168.8,288.9,163.5,288.9,158.2,289.2
					L158.2,289.2z M133.3,248.8c6.9-0.4,13.1-2.4,18.1-7.3c3.3-3.3,3.7-8,1-11.2c-2.7-3.2-7.1-3.8-10.8-0.9
					c-5.5,4.4-10.6,4.6-16.3,0.2c-4.1-3.2-8.7-2.5-11.4,1.2c-2.6,3.5-2.1,7.8,1.7,11.1C120.6,246.4,126.6,248.6,133.3,248.8
					L133.3,248.8z M189.9,183.7c0.3,0,1.1-0.2,1.9-0.3c3.9-0.3,6.4-2.2,6.1-6.2c-0.3-3.8-2.9-5.3-6.6-5.3c-2.8,0-5.6,0-8.5,0
					c-7.3-0.1-10.9,1.8-12.1,8.9c-0.9,5.5-0.2,11.4,0.8,17c0.7,3.5,3.5,6.6,7.8,6.5c4.3-0.1,6.7-3.1,7.8-6.7
					C188.5,193.2,189,188.6,189.9,183.7L189.9,183.7z M194.4,230.3c4.2-1.6,8.9-2.5,12.6-4.9c5.5-3.7,5-9.1-0.6-12.9
					c-7-4.8-19.3-4.4-25.9,0.9c-4.2,3.3-4.4,7.2-0.7,11.1C183.7,228.6,188.7,229.4,194.4,230.3L194.4,230.3z"/>
				<path class="st12" d="M133.9,330.8c2-0.6,4-1.1,6.1-1.7c11.4-3.5,17-11.5,18.1-23.1c8.2,2.7,16.3,5.4,24.5,8.1
					c-5.5,15.3-11.1,30.7-16.6,46c-2.1-1.6-4.2-3.1-6.2-4.8c-2.9-2.4-5.8-4.8-8.7-7.2L133.9,330.8L133.9,330.8z"/>
				<path class="st3" d="M158.1,306c-1.1,11.5-6.6,19.6-18.1,23.1c-5.8-4.2-11.6-8.4-13.9-15.7c-0.5-1.6-1-3.2-1.1-4.8
					c-0.4-5.6,0.3-6.4,5.9-6.4c9,0,17.9,0,26.9,0C157.9,303.4,158,304.8,158.1,306L158.1,306z"/>
				<path class="st19" d="M133.9,330.8c5.7,5.8,11.4,11.5,17.1,17.3c-5,4.8-10.1,9.6-15.3,14.6c5.3,6.7,10.4,13.1,15.4,19.5
					c-4.9,4.9-9.7,9.9-14.6,14.8c-2.1,2.2-4.1,2.4-6.3,0.1c-4.9-4.9-9.8-9.8-14.7-14.7c5-6.5,10.1-13.1,15.3-19.9
					c-5.3-5-10.2-9.7-15.2-14.4c5.8-5.8,11.6-11.6,17.4-17.4C133.3,330.8,133.6,330.8,133.9,330.8L133.9,330.8z"/>
				<path class="st23" d="M151.2,382.2c-5-6.4-10.1-12.8-15.4-19.5c5.2-5,10.3-9.8,15.3-14.6c2.9,2.4,5.8,4.9,8.7,7.2
					c2,1.6,4.1,3.2,6.2,4.8C161,367.5,156.1,374.8,151.2,382.2L151.2,382.2z"/>
				<path class="st23" d="M115.7,348.1c4.9,4.7,9.9,9.4,15.2,14.4c-5.2,6.8-10.2,13.3-15.3,19.9c-4.9-7.1-9.7-14.2-14.6-21.3
					C105.9,356.8,110.8,352.5,115.7,348.1L115.7,348.1z"/>
				<path class="st17" d="M80,171.6c1.5,0.1,3,0.3,4.5,0.2c4.8-0.4,7.9,2,9.8,6.1c2.9,6.4,3,12.9,0.4,19.4
					c-3.1,7.8-8.2,8.9-14.6,3.5c-1.5-5.5-2.9-11-4.6-17.1c-0.2-0.1-2,0.2-2.7-0.6c-1.6-1.8-3.8-4-3.7-6.1c0-1.7,2.6-3.9,4.5-4.8
					C75.4,171.3,77.8,171.7,80,171.6L80,171.6z"/>
				<path class="st15" d="M80,210.1c1,0.5,2.1,1,3.1,1.5c8,4.4,8.1,10.9,0.2,15.8c-0.8,0.5-1.7,1.1-2.5,1.6
					c-6.4-0.6-12.9-0.7-19-2.2c-2.4-0.6-5.3-4.7-5.4-7.2c0-2.5,2.7-5.9,5.2-7.5C67.2,208.3,73.7,208.6,80,210.1L80,210.1z"/>
				<path class="st14" d="M133.3,248.8c-6.7-0.2-12.7-2.4-17.8-6.9c-3.7-3.4-4.3-7.6-1.7-11.1c2.7-3.7,7.3-4.4,11.4-1.2
					c5.6,4.4,10.7,4.2,16.3-0.2c3.6-2.9,8.1-2.2,10.8,0.9c2.7,3.2,2.4,7.9-1,11.2C146.4,246.4,140.2,248.4,133.3,248.8L133.3,248.8z
					"/>
				<path class="st17" d="M189.9,183.7c-0.9,4.9-1.4,9.5-2.8,13.8c-1.1,3.6-3.5,6.6-7.8,6.7c-4.3,0.1-7.1-3-7.8-6.5
					c-1-5.5-1.7-11.5-0.8-17c1.2-7.1,4.8-9,12.1-8.9c2.8,0,5.6,0,8.5,0c3.6,0,6.3,1.5,6.6,5.3c0.3,4.1-2.2,6-6.1,6.2
					C191,183.5,190.2,183.6,189.9,183.7L189.9,183.7z"/>
				<path class="st15" d="M194.4,230.3c-5.7-0.9-10.7-1.7-14.6-5.8c-3.7-3.9-3.4-7.8,0.7-11.1c6.6-5.3,18.9-5.7,25.9-0.9
					c5.6,3.8,6.1,9.2,0.6,12.9C203.4,227.8,198.7,228.7,194.4,230.3L194.4,230.3z"/>
			</g>
		</g>
	</g>
</g>
</svg>
