<?xml version="1.0" encoding="UTF-8"?><svg xmlns="http://www.w3.org/2000/svg" viewBox="0 0 512 507.88"><defs><style>.d{fill:#e3936b;}.e{fill:#9c6b6b;}.f{fill:#eaf2fe;}.g{fill:#eaf2fd;}.h{fill:#8b5e5e;}.i{fill:#ebf3fe;}.j{fill:#9d6b6b;}.k{fill:#dbe8f9;}.l{fill:#dce8f8;}.m{fill:#dce8f9;}.n{fill:#fedccd;}.o{fill:#2e4f67;}.p{fill:#e9afa5;}.q{fill:#eaf1fc;}.r{fill:#e9ac9d;}.s{fill:#4352c1;}.t{fill:#5866ca;}.u{fill:#315169;}.v{fill:#e0ebfa;}.w{fill:#fecabd;}.x{fill:#d47181;}.y{fill:#d57181;}.a`{fill:#5867ca;}.aa{fill:#e17d47;}</style></defs><g id="a"/><g id="b"><g id="c"><g><path class="j" d="M512,90.09v25c-1.49,6.07-2.73,12.21-4.51,18.2-5.32,17.92-16.11,32.28-29.67,44.78-8.73-.5-14.91,3.37-18.85,11.05v-32.68c-56.98-1.09-109.97-12.11-156.01-46.34-2.68-2.72-2.23,.26-2.54,1.47-1.16,4.55-2.22,9.13-3.31,13.7-1.04-1.06-1.98-2.24-3.13-3.15-19.57-15.49-25.97-38.38-17.23-61.53,.63-1.68,.83-3.52,1.22-5.28,1.41-1.29,3.05-2.41,4.19-3.91,10.33-13.63,22.17-25.7,36.21-35.53,17.9-12.53,37.42-18.14,59.4-15,19.36,2.77,36.75,10.17,53.08,20.52,11.94,7.57,23.58,15.63,35.73,22.83,10.01,5.94,20.61,7.53,31.91-.56,2.92,8.31,5.99,15.98,8.29,23.86,2.16,7.4,3.5,15.04,5.21,22.58Z"/><path class="aa" d="M44.04,333.88c-16.79-9.83-29.92-23.08-37.37-41.27C3.95,285.98,2.19,278.95,0,272.11,0,220.77,0,169.43,0,118.09c1.34-5.91,2.53-11.85,4.03-17.71C19.29,40.41,72.34,2.01,126.93,.23c-7.31,3.66-14.19,7.75-19.39,14.41-15.68,20.1-21.85,43.86-26.45,68.17-4.32,22.82-4.37,45.96-4.15,69.08-13.66,1.82-27.29,3.82-40.98,5.36-4.47,.5-6.17,1.82-6.08,6.66,.32,16.98,0,33.97,.16,50.96,.17,17.59,6.04,33.17,17.04,46.91,8.55,10.68,19.71,17.7,31.92,23.32,.28,2.8,.32,5.65,.87,8.4,1.35,6.67,2.93,13.3,4.42,19.95-.08,.24-.21,.45-.37,.64-5.64,2.36-11.28,4.72-16.91,7.08-.36,.31-.73,.62-1.09,.94l.15-.23-.23-.15c-5.11,2.58-10.21,5.16-15.32,7.74-2.16,1.48-4.32,2.95-6.48,4.43Z"/><path class="n" d="M458.06,229.96c-1.87,4.78-3.42,9.71-5.66,14.3-14.5,29.74-38.2,44.94-71.46,44.84-42.75,2.06-76.55-30.94-79-71.06,3.3-3.96,3.27-7.92,0-11.88l.23-12.55c5.68,3.39,9.71,2.48,12.53-3.35,3.46-7.15,3.47-14.5-.26-21.58-2.72-5.17-6.02-6.04-11.55-3.57-.3-1.61-.85-3.22-.85-4.83-.07-15.12-.07-30.24,0-45.37,0-1.61,.6-3.21,.92-4.81,46.04,34.23,99.03,45.25,156.01,46.35,0,10.91,0,21.8,0,32.68l.13,8.1c-.02,6.27-.04,12.54-.06,18.8-.33,4.64-.66,9.29-1,13.93Zm-102.7,18.43c7.67,.07,13.75-2.3,18.86-7.02,3.83-3.53,4.23-8.09,1.25-11.53-2.9-3.34-6.96-3.6-11.18-.71-6.92,4.73-10.06,4.71-17.14-.11-4.12-2.8-8.37-2.47-11.2,.88-2.97,3.52-2.51,7.97,1.39,11.51,5.28,4.79,11.49,7.27,18.01,6.98Zm68.49-25.16c4.41-1.64,9.15-2.73,13.15-5.07,4.4-2.56,4.6-7.53,1.32-11.12-6.28-6.89-22.96-6.67-29.19,.35-2.96,3.34-2.77,6.52,.24,9.7,3.85,4.07,8.71,5.23,14.47,6.14Zm-8.93-43.31c-1.65-4.48-2.61-8.93-4.82-12.65-2.99-5.03-8.28-4.91-11.93-.38-5.08,6.31-5.02,19.53,.11,25.74,3.61,4.36,8.6,4.59,11.6-.2,2.29-3.66,3.32-8.11,5.03-12.51Z"/><path class="w" d="M301.94,218.04c2.44,40.12,36.25,73.12,79,71.06-.28,4.35-.56,8.71-.84,13.06-8.83-.02-17.65-.06-26.48-.04-6.5,0-7.49,1.46-6.15,7.8,1.92,9.06,7.76,14.82,15.47,19.14l-6.96,1.64c-.31,.1-.62,.18-.95,.23-.78-.26-1.53-.61-2.33-.77-13.13-2.63-20.59-10.84-21.83-24.06,.05-3.65-.13-7.33,.19-10.96,.4-4.52-1.26-6.19-5.87-6.09-10.31,.22-19.99-2.57-29.31-6.88-11.56-5.34-20.75-13.6-28.93-23.14l.05-105.1c14.27-5.11,24.9-14.05,30.12-28.67,1.1-4.57,2.16-9.15,3.31-13.7,.31-1.2-.14-4.18,2.54-1.47-.32,1.6-.91,3.21-.92,4.81-.07,15.12-.07,30.24,0,45.37,0,1.61,.56,3.22,.86,4.83-6.82,8.78-7.08,18.77-.73,28.51-.08,4.18-.15,8.37-.23,12.55-5.69-3.79-12.01-4.68-18.64-3.94-6.48,.72-12.23,5.44-12.23,9.89,0,4.46,5.75,9.17,12.23,9.88,6.63,.73,12.95-.15,18.63-3.94Z"/><path class="h" d="M297.12,125.26c-5.22,14.62-15.85,23.56-30.12,28.67-.06-6.31-.09-12.63-.18-18.94-.34-24.38-5.7-47.46-18.25-68.54-4.15-6.97-9.11-13.46-13.69-20.17,15.15-.71,29.36,3.04,43.11,9.01-.4,1.76-.59,3.61-1.22,5.28-8.74,23.15-2.34,46.04,17.23,61.53,1.15,.91,2.09,2.1,3.13,3.15Z"/><path class="w" d="M458.06,229.96c.33-4.64,.66-9.29,1-13.93,2.32-1.48,4.55-3.15,7-4.39,2.36-1.2,4.95-2.75,7.43-2.74,5.17,.01,8.68-1.74,9.42-5.9,.76-4.31-1.69-7.19-6.7-8.95-6.42-2.25-11.62,.91-17.09,3.17l-.13-8.1c3.94-7.68,10.12-11.54,18.85-11.05,12.28,5.08,16.65,17.19,11.17,30.99-5.21,13.13-16.47,20.73-30.94,20.9Z"/><path class="h" d="M467.24,463.2v44.67H32.22v-44.76c-4.32,0-8.1,.06-11.88-.01-6.6-.12-11.08-4.15-11.42-10.68-.27-5.31-.26-10.66,0-15.98,.31-6.09,4.38-10.02,10.55-10.49,3.81-.29,7.64-.31,11.45-.46,2.36,.18,4.71,.37,7.07,.55-5.56,3.65-7.8,8.72-7.08,15.36,.38,3.46,.13,6.99,.06,10.48-.1,4.98,2.34,8.4,6.81,9.97,2.74,.96,5.84,1.2,8.78,1.2,104.91,.06,209.83,.04,314.74,.05,35.3,0,70.61,.05,105.91,.08Z"/><path class="e" d="M467.24,463.2c-35.3-.03-70.61-.07-105.91-.08-104.91-.01-209.83,0-314.74-.05-2.94,0-6.05-.24-8.78-1.2-4.47-1.57-6.91-4.99-6.81-9.97,.07-3.5,.31-7.03-.06-10.48-.72-6.64,1.52-11.72,7.08-15.36l15.01-.34c6.7,0,13.4,.01,20.11,.02,29.12,.08,58.24,.2,87.35,.23,10.98,.01,21.96-.16,32.94-.25,13.88,0,27.76-.02,41.64-.03l17.92,.05c7.68,0,15.36,0,23.04-.01,6.57,0,13.13,0,19.7,0,18.29,.09,36.58,.25,54.87,.24,21.78,0,43.57-.15,65.35-.23,14.03,0,28.06-.01,42.09-.02,6.64,.08,13.27,.11,19.91,.24,8.05,.15,12.31,4.2,12.65,12.19,.19,4.31,.2,8.64-.01,12.95-.37,7.69-4.75,11.85-12.39,12.01-3.65,.08-7.3,.07-10.96,.1Z"/><path class="a`" d="M415.94,425.74c-21.78,.08-43.57,.22-65.35,.23-18.29,0-36.58-.16-54.87-.24,.64-3.76,1.26-7.52,1.92-11.27,2.11-11.86,6.33-23.42,4.45-35.81-2.39-15.7-6.84-30.4-19.11-41.53-.01-.28-.02-.57-.02-.85,1.76-4.91,3.52-9.82,5.28-14.73,5.92-2.48,11.85-4.97,17.77-7.45,.67,1.69,1.36,3.37,1.99,5.08,5.04,13.65,10.06,27.3,15.09,40.96,4.94,7.33,9.87,14.67,14.81,22,4.61,4.75,9.26,9.47,13.83,14.27,2.68,2.82,5.2,2.99,7.98,.12,4.62-4.77,9.33-9.44,14-14.15,6.88-8.75,13.74-17.44,17.32-28.31,4.41-13.39,9.38-26.59,14.11-39.87,11.03,5.32,22.06,10.63,33.09,15.95-19.71,10.82-32.75,39.42-28.64,63.4,1.85,10.78,4.23,21.47,6.37,32.2Z"/><path class="g" d="M415.94,425.74c-2.14-10.73-4.52-21.42-6.37-32.2-4.11-23.98,8.93-52.57,28.64-63.4,6.11,3.02,9.74,8.16,10.72,14.65,2.29,15.06,4.29,30.18,6.01,45.32,1.34,11.84,2.08,23.74,3.09,35.62-14.03,0-28.06,.01-42.09,.02Z"/><path class="m" d="M53.02,425.72l-15.01,.34c-2.36-.18-4.72-.37-7.07-.55,2.5-23.72,4.75-47.48,7.66-71.15,.85-6.94,3.57-13.65,5.44-20.47,2.16-1.48,4.32-2.95,6.48-4.43,3.47,2.41,6.94,4.82,10.41,7.23l.4,1.23c-.77,2.83-1.92,5.63-2.25,8.51-.94,8.4-1.66,16.82-2.28,25.25-1.32,18.01-2.53,36.03-3.78,54.04Z"/><path class="v" d="M405.13,314.19c-4.73,13.28-9.7,26.48-14.11,39.87-3.58,10.87-10.44,19.56-17.32,28.31-4.35-5.48-8.58-11.05-13.09-16.38-2.08-2.46-1.85-4.01,.43-6.2,4.15-3.99,7.96-8.32,12.23-12.85-5.69-5.34-11.49-10.79-17.3-16.24,2.32-.55,4.64-1.09,6.96-1.64,10.96-3.76,16.62-11.52,17.36-23,8.28,2.71,16.56,5.42,24.84,8.13Z"/><path class="n" d="M380.29,306.05c-.73,11.48-6.4,19.24-17.36,23-7.71-4.32-13.55-10.08-15.47-19.14-1.34-6.34-.34-7.79,6.15-7.8,8.83-.01,17.65,.03,26.48,.04,.07,1.3,.13,2.59,.19,3.89Z"/><path class="d" d="M234.87,46.28c4.59,6.71,9.54,13.2,13.69,20.17,12.56,21.07,17.91,44.16,18.25,68.54,.09,6.31,.12,12.63,.18,18.94-.02,35.03-.04,70.06-.05,105.1-1.67,9.46-2.3,19.25-5.2,28.31-6.69,20.89-20.86,35.95-39.78,46.71-1.96-1.39-3.93-2.78-5.89-4.18-11.17-5.25-22.35-10.51-33.52-15.76-8.16-2.69-16.33-5.38-24.49-8.06l-.22-3.9c.11-4.31,.23-8.62,.34-12.93,5.31-.37,10.67-.37,15.91-1.16,33.62-5.09,60.92-35.35,61.96-69.24,.59-19.14,.15-38.3,.27-57.46,.02-2.75-1.05-4.02-3.58-5.11-5.02-2.16-10.12-4.39-14.63-7.43-13.56-9.11-23.17-21.84-31.47-35.67-.88-1.48-1.89-2.88-3.02-4.6-16.99,14.96-36.55,23.76-57.08,30.36-15.35,4.93-31.09,8.65-46.65,12.9l-2.96,.09c-.22-23.13-.17-46.26,4.15-69.08,4.6-24.32,10.76-48.07,26.45-68.17,5.2-6.67,12.08-10.75,19.39-14.41,41.02-1.54,75.6,12.75,104.01,42.25,1.26,1.31,2.62,2.53,3.94,3.8Z"/><path class="t" d="M182.55,314.12c11.17,5.25,22.35,10.51,33.52,15.76-7.51,4-13.73,9.5-18.1,16.78-9.98,16.62-13.77,34.42-9.61,53.64,1.83,8.45,3.38,16.96,5.06,25.44-10.98,.09-21.96,.26-32.94,.25-29.12-.03-58.24-.15-87.35-.23,1.67-8.32,3.11-16.7,5.06-24.95,2.11-8.91,2.54-17.79,.78-26.75-2.67-13.6-7.03-26.39-17.64-36.12-.13-.41-.26-.82-.4-1.23,1.64-4.99,3.27-9.98,4.91-14.97l.23,.15-.15,.23c.36-.31,.73-.62,1.09-.94,5.64-2.36,11.28-4.72,16.91-7.08,5.68,15.68,11.37,31.36,17.05,47.05,4.87,7.1,9.73,14.2,14.6,21.3,4.91,4.9,9.85,9.76,14.71,14.7,2.23,2.26,4.21,2.05,6.32-.13,4.83-4.97,9.71-9.89,14.57-14.83,4.94-7.35,9.87-14.71,14.81-22.06,5.52-15.33,11.05-30.66,16.57-45.99Z"/><path class="w" d="M76.93,151.91c.99-.03,1.97-.06,2.96-.09,.04,6.6,.07,13.19,.11,19.79-2.15,.13-4.59-.32-6.37,.56-1.93,.96-4.49,3.13-4.52,4.82-.03,2.03,2.1,4.29,3.72,6.06,.7,.76,2.46,.55,2.71,.6,1.64,6.14,3.11,11.64,4.58,17.13-.04,3.1-.07,6.2-.11,9.3-6.34-1.45-12.78-1.74-18.35,1.92-2.46,1.61-5.23,4.98-5.19,7.52,.03,2.53,3,6.59,5.38,7.2,6.13,1.56,12.65,1.58,19.01,2.22,3.18,13.88,9.14,26.35,19.13,36.62,15.91,16.36,35.35,24.24,58.19,23.66-.11,4.31-.23,8.62-.34,12.93-8.96-.01-17.92-.06-26.87-.02-5.56,.02-6.3,.81-5.9,6.43,.11,1.62,.59,3.24,1.08,4.81,2.25,7.32,8.1,11.5,13.86,15.74-2.02,.57-4.04,1.14-6.06,1.71-.3,0-.6-.03-.9-.1-4.08-1.27-8.41-2.04-12.18-3.92-8.4-4.18-11.13-12.2-12.76-20.74,0-4.3,.25-8.63-.17-12.89-.14-1.4-1.85-3.53-3.15-3.78-8.55-1.67-17.18-2.92-25.78-4.3-12.22-5.62-23.37-12.63-31.92-23.32-11-13.73-16.87-29.32-17.04-46.91-.16-16.99,.16-33.98-.16-50.96-.09-4.84,1.61-6.15,6.08-6.66,13.69-1.54,27.32-3.54,40.98-5.36Z"/><path class="k" d="M108.1,306.07c1.62,8.54,4.36,16.56,12.76,20.74,3.78,1.88,8.1,2.65,12.18,3.92-5.79,5.8-11.57,11.6-17.36,17.4l-14.71,13c-5.68-15.68-11.37-31.36-17.05-47.05,.16-.19,.29-.4,.37-.64,7.94-2.46,15.87-4.92,23.81-7.37Z"/><path class="d" d="M108.1,306.07c-7.94,2.46-15.87,4.92-23.81,7.37-1.49-6.65-3.07-13.27-4.41-19.95-.55-2.75-.6-5.6-.87-8.4,8.6,1.38,17.23,2.63,25.78,4.3,1.29,.25,3.01,2.39,3.15,3.78,.42,4.26,.16,8.59,.17,12.89Z"/><path class="s" d="M65.84,321.72c-1.64,4.99-3.27,9.98-4.91,14.97-3.47-2.41-6.94-4.82-10.41-7.23,5.11-2.58,10.22-5.16,15.32-7.74Z"/><path class="s" d="M67.01,321.16c-.36,.31-.73,.62-1.09,.94,.36-.31,.73-.62,1.09-.94Z"/><path class="y" d="M355.35,248.38c-6.53,.29-12.73-2.19-18.01-6.98-3.9-3.54-4.36-7.99-1.39-11.51,2.83-3.35,7.08-3.68,11.2-.88,7.08,4.82,10.22,4.84,17.14,.11,4.22-2.89,8.28-2.63,11.18,.71,2.99,3.44,2.58,8-1.25,11.53-5.11,4.71-11.19,7.09-18.86,7.02Z"/><path class="p" d="M301.94,218.04c-5.69,3.79-12.01,4.68-18.63,3.94-6.48-.72-12.23-5.42-12.23-9.88,0-4.45,5.75-9.17,12.23-9.89,6.63-.74,12.95,.16,18.64,3.94,3.27,3.96,3.3,7.92,0,11.88Z"/><path class="p" d="M423.85,223.22c-5.76-.91-10.63-2.07-14.47-6.14-3.01-3.18-3.2-6.36-.24-9.7,6.23-7.02,22.91-7.24,29.19-.35,3.27,3.59,3.07,8.56-1.32,11.12-4.01,2.34-8.74,3.43-13.15,5.07Z"/><path class="u" d="M414.92,179.91c-1.71,4.41-2.74,8.86-5.03,12.51-3,4.78-8,4.56-11.6,.2-5.13-6.2-5.19-19.43-.11-25.74,3.65-4.53,8.94-4.65,11.93,.38,2.21,3.71,3.17,8.17,4.82,12.65Z"/><path class="o" d="M302.17,193.61c-6.35-9.73-6.09-19.72,.73-28.51,5.52-2.47,8.82-1.6,11.55,3.57,3.73,7.08,3.72,14.44,.26,21.58-2.82,5.83-6.85,6.74-12.53,3.35Z"/><path class="r" d="M459.11,197.23c5.47-2.26,10.67-5.41,17.09-3.17,5.01,1.75,7.46,4.64,6.7,8.95-.74,4.16-4.24,5.92-9.42,5.9-2.48,0-5.07,1.54-7.43,2.74-2.45,1.24-4.67,2.91-7,4.39,.02-6.27,.04-12.54,.06-18.8Z"/><path class="x" d="M355.97,330.69c5.81,5.45,11.61,10.9,17.3,16.24-4.27,4.53-8.08,8.87-12.23,12.85-2.28,2.19-2.5,3.74-.43,6.2,4.51,5.34,8.74,10.91,13.09,16.38-4.67,4.71-9.38,9.39-14,14.16-2.78,2.87-5.3,2.69-7.98-.12-4.56-4.8-9.21-9.52-13.82-14.27,5.07-6.36,10.14-12.71,15.48-19.42-5.3-5.03-10.35-9.82-15.39-14.61l17.03-17.18c.32-.05,.64-.12,.95-.23Z"/><path class="k" d="M355.02,330.92c-5.68,5.73-11.35,11.46-17.03,17.18-4.97,4.01-9.93,8.02-14.9,12.02-5.03-13.65-10.05-27.31-15.09-40.96-.63-1.71-1.33-3.39-1.99-5.08,8.29-2.67,16.57-5.33,24.86-8,1.24,13.21,8.7,21.43,21.83,24.06,.8,.16,1.55,.51,2.33,.77Z"/><path class="i" d="M221.96,334.05c6.55,9.21,6.26,20.24,7.49,30.65,2.4,20.27,3.79,40.66,5.61,61-13.88,0-27.76,.02-41.64,.03-1.68-8.48-3.24-16.99-5.06-25.44-4.15-19.22-.36-37.02,9.61-53.64,4.37-7.28,10.59-12.77,18.1-16.78,1.96,1.39,3.93,2.78,5.89,4.18Z"/><path class="l" d="M252.97,425.74c.68-7.26,1.21-14.54,2.06-21.78,2.35-19.95,4.64-39.92,7.37-59.82,.87-6.32,4.53-11.35,10.68-14.07,3.29,2.07,6.58,4.13,9.87,6.2,0,.28,.01,.57,.02,.85-.33,1.44-.81,2.85-.95,4.31-.77,7.92-1.61,15.84-2.15,23.77-1.37,20.17-2.58,40.35-3.86,60.52-7.68,0-15.36,0-23.04,.01Z"/><path class="f" d="M276.02,425.73c1.28-20.18,2.49-40.36,3.86-60.52,.54-7.94,1.37-15.85,2.15-23.77,.14-1.45,.63-2.87,.95-4.31,12.26,11.13,16.71,25.83,19.11,41.53,1.89,12.39-2.33,23.95-4.45,35.81-.67,3.75-1.28,7.51-1.92,11.27-6.57,0-13.13,0-19.7,0Z"/><path class="f" d="M61.33,337.91c10.61,9.73,14.97,22.53,17.64,36.12,1.76,8.96,1.33,17.84-.78,26.75-1.95,8.26-3.39,16.63-5.06,24.95-6.7,0-13.4-.01-20.11-.02,1.25-18.01,2.46-36.03,3.78-54.04,.62-8.43,1.33-16.86,2.28-25.25,.32-2.88,1.47-5.68,2.25-8.51Z"/><path class="q" d="M323.09,360.13c4.97-4.01,9.93-8.02,14.9-12.02,5.04,4.79,10.09,9.58,15.39,14.61-5.34,6.7-10.41,13.06-15.48,19.42-4.94-7.33-9.87-14.67-14.81-22Z"/><path class="s" d="M282.96,336.28c-3.29-2.07-6.58-4.13-9.87-6.2,5.05-2.84,10.09-5.69,15.14-8.53-1.76,4.91-3.52,9.82-5.28,14.73Z"/><path class="n" d="M158.18,289.22c-22.84,.57-42.28-7.3-58.19-23.66-9.99-10.27-15.95-22.75-19.13-36.62,.83-.53,1.65-1.08,2.49-1.59,7.86-4.83,7.77-11.35-.24-15.75-1.01-.55-2.07-1.01-3.1-1.51,.04-3.1,.07-6.2,.11-9.3,6.32,5.41,11.51,4.26,14.57-3.51,2.54-6.43,2.48-12.99-.43-19.37-1.9-4.16-4.96-6.54-9.8-6.14-1.47,.12-2.97-.09-4.46-.16-.04-6.59-.07-13.19-.11-19.79,15.56-4.26,31.3-7.97,46.65-12.9,20.53-6.6,40.09-15.4,57.08-30.36,1.14,1.72,2.14,3.12,3.02,4.6,8.3,13.83,17.91,26.56,31.47,35.67,4.51,3.03,9.61,5.26,14.63,7.43,2.53,1.09,3.6,2.36,3.58,5.11-.12,19.15,.32,38.32-.27,57.46-1.05,33.89-28.35,64.14-61.96,69.24-5.24,.79-10.6,.79-15.91,1.16Zm-24.86-40.43c6.87-.36,13.1-2.36,18.09-7.33,3.34-3.31,3.7-8.03,.96-11.23-2.7-3.16-7.12-3.82-10.75-.94-5.52,4.38-10.62,4.62-16.26,.22-4.13-3.22-8.71-2.49-11.45,1.19-2.62,3.52-2.06,7.78,1.65,11.14,5.02,4.55,11.02,6.72,17.76,6.94Zm56.59-65.1c.29-.04,1.08-.21,1.88-.27,3.91-.27,6.39-2.17,6.11-6.25-.26-3.81-2.93-5.3-6.55-5.31-2.82,0-5.64,0-8.46-.04-7.32-.08-10.91,1.82-12.12,8.89-.93,5.47-.23,11.42,.81,16.96,.66,3.54,3.51,6.57,7.81,6.51,4.27-.06,6.68-3.09,7.76-6.67,1.31-4.35,1.82-8.95,2.76-13.83Zm4.54,46.62c4.24-1.59,8.94-2.48,12.6-4.94,5.54-3.71,4.96-9.11-.6-12.9-7.04-4.79-19.26-4.35-25.89,.94-4.16,3.32-4.43,7.22-.72,11.09,3.9,4.07,8.9,4.86,14.61,5.8Z"/><path class="k" d="M133.94,330.82c2.02-.57,4.04-1.14,6.06-1.71,11.4-3.47,16.97-11.51,18.06-23.06,8.16,2.69,16.33,5.38,24.49,8.06-5.52,15.33-11.05,30.66-16.57,45.99-2.07-1.58-4.19-3.12-6.21-4.76-2.92-2.37-5.79-4.82-8.68-7.23l-17.15-17.3Z"/><path class="n" d="M158.06,306.05c-1.09,11.55-6.65,19.59-18.06,23.06-5.76-4.24-11.61-8.43-13.86-15.74-.48-1.57-.96-3.19-1.08-4.81-.4-5.62,.34-6.41,5.9-6.43,8.96-.03,17.92,.01,26.87,.02,.07,1.3,.14,2.6,.22,3.9Z"/><path class="x" d="M133.94,330.82c5.72,5.77,11.43,11.53,17.15,17.3-5.04,4.79-10.07,9.58-15.32,14.58,5.32,6.73,10.36,13.1,15.4,19.48-4.86,4.94-9.74,9.86-14.57,14.83-2.11,2.18-4.09,2.39-6.32,.13-4.86-4.94-9.8-9.81-14.71-14.7,5.03-6.54,10.06-13.09,15.26-19.85-5.29-5.04-10.22-9.74-15.15-14.44,5.79-5.8,11.57-11.6,17.36-17.4,.3,.06,.6,.1,.9,.1Z"/><path class="q" d="M151.17,382.17c-5.04-6.37-10.08-12.75-15.4-19.48,5.25-4.99,10.29-9.78,15.32-14.58,2.89,2.41,5.75,4.86,8.68,7.23,2.03,1.64,4.14,3.18,6.21,4.76-4.94,7.35-9.87,14.71-14.81,22.06Z"/><path class="q" d="M115.68,348.13c4.93,4.7,9.86,9.4,15.15,14.44-5.2,6.77-10.23,13.31-15.26,19.85-4.87-7.1-9.73-14.2-14.6-21.3,4.9-4.33,9.81-8.67,14.71-13Z"/><path class="o" d="M80,171.6c1.49,.06,2.99,.28,4.46,.16,4.84-.4,7.9,1.98,9.8,6.14,2.91,6.38,2.96,12.93,.43,19.37-3.06,7.77-8.25,8.92-14.57,3.51-1.47-5.5-2.94-10.99-4.58-17.13-.25-.05-2.01,.17-2.71-.6-1.62-1.77-3.75-4.03-3.72-6.06,.03-1.68,2.59-3.86,4.52-4.82,1.78-.88,4.22-.43,6.37-.56Z"/><path class="p" d="M80.01,210.07c1.03,.5,2.09,.96,3.1,1.51,8,4.41,8.09,10.92,.24,15.75-.84,.52-1.66,1.06-2.49,1.59-6.36-.64-12.88-.66-19.01-2.22-2.39-.61-5.35-4.68-5.38-7.2-.03-2.54,2.74-5.91,5.19-7.52,5.57-3.66,12.01-3.36,18.35-1.92Z"/><path class="y" d="M133.32,248.79c-6.74-.22-12.74-2.4-17.76-6.94-3.71-3.36-4.28-7.62-1.65-11.14,2.74-3.68,7.32-4.41,11.45-1.19,5.65,4.4,10.74,4.16,16.26-.22,3.63-2.88,8.05-2.22,10.75,.94,2.74,3.2,2.38,7.91-.96,11.23-5,4.96-11.22,6.96-18.09,7.33Z"/><path class="o" d="M189.91,183.69c-.93,4.88-1.44,9.48-2.76,13.83-1.08,3.58-3.49,6.61-7.76,6.67-4.3,.06-7.15-2.97-7.81-6.51-1.03-5.54-1.74-11.49-.81-16.96,1.2-7.07,4.79-8.97,12.12-8.89,2.82,.03,5.64,.03,8.46,.04,3.62,0,6.29,1.5,6.55,5.31,.28,4.07-2.21,5.98-6.11,6.25-.8,.05-1.58,.22-1.88,.27Z"/><path class="p" d="M194.45,230.31c-5.72-.94-10.72-1.73-14.61-5.8-3.71-3.87-3.44-7.77,.72-11.09,6.63-5.29,18.85-5.73,25.89-.94,5.56,3.78,6.14,9.19,.6,12.9-3.66,2.45-8.36,3.35-12.6,4.94Z"/></g></g></g></svg>