<?xml version="1.0" encoding="utf-8"?>
<!-- Generator: Adobe Illustrator 26.2.1, SVG Export Plug-In . SVG Version: 6.00 Build 0)  -->
<svg version="1.1" xmlns="http://www.w3.org/2000/svg" xmlns:xlink="http://www.w3.org/1999/xlink" x="0px" y="0px"
	 viewBox="0 0 498.4 512" style="enable-background:new 0 0 498.4 512;" xml:space="preserve">
<style type="text/css">
	.st0{fill:#FFFFFF;}
	.st1{fill:#6A829A;}
	.st2{fill:#FEDCCE;}
	.st3{fill:#DDDCF4;}
	.st4{fill:#7A8FA5;}
	.st5{fill:#E3996E;}
	.st6{fill:#C6C3E9;}
	.st7{fill:#7293DE;}
	.st8{fill:#FECABD;}
	.st9{fill:#5C85D9;}
	.st10{fill:#7B8FA5;}
	.st11{fill:#7B90A6;}
	.st12{fill:#FDCABE;}
	.st13{fill:#DCDBF3;}
	.st14{fill:#FEA1AC;}
	.st15{fill:#5E7890;}
	.st16{fill:#5F7990;}
	.st17{fill:#96A4BB;}
</style>
<g id="Layer_2">
	<ellipse class="st0" cx="249.2" cy="244" rx="249.2" ry="244"/>
</g>
<g id="Layer_1">
	<g id="a">
	</g>
	<g id="b">
		<g id="c">
			<g>
				<path class="st1" d="M8.4,190.1c-10.9-13.1-9.2-27.2,5-39.8C1.5,137.4-1.5,122.5,4.2,106C10,89.5,21.8,79.8,39.4,77
					c-4.8-26.6,3.9-46.9,27.9-59.3c17.3-9,38.8-8.4,59.1,9.1c0.8-1.4,1.6-2.8,2.4-4.1C134.4,12.4,142.9,5.6,154,2
					c1.5-0.5,3.4-1.3,5.2-1.6c1.7-0.3,13.4-0.7,16,0.1c1.8,0.4,11.9,4.7,18.8,8.2c-12,8.8-24.9,16.5-35.9,26.4
					C143,48.9,131.9,66,124,84.8c-6.4,15.2-10.3,31-11.4,47.5c-0.4,0.2-0.8,0.5-1.2,0.7c-8.2-0.7-16.3-1.5-24.6-2.2
					c-6.5,18.9-19.1,30.9-40.4,32.4c-1.4,0.1-3.2,1.7-3.8,3.1c-2.2,4.8-4.2,9.8-5.9,14.8c-1.5,4.2-4,6.9-8.5,7.4
					C21.6,189.2,15,189.6,8.4,190.1L8.4,190.1z"/>
				<path class="st2" d="M337.4,512c-3.1-1.1-6.2-2.1-9.3-3.2c-6.7-5-12.6-10.7-14.6-19.3c-2.9-12.1-0.3-22.9,7.9-32.4
					c5.7-2.7,11.4-5.4,17-8.1c8.5,0.6,16.9,1.1,25.4,2c2.6,0.3,5.1,1.9,7.6,2.9c2.8,3.8,6,7.4,8.2,11.5c9.5,17.3,0.8,40.7-20,45.7
					c-0.4,0.1-0.8,0.6-1.2,0.9L337.4,512L337.4,512z"/>
				<path class="st3" d="M346.4,89c44,0,87.9,0,131.9,0c10.5,0,20.1,9.4,20.1,20.1c0.1,55.3,0.1,110.5,0,165.8
					c0,11.9-9.6,20.9-22.6,21c-12.8,0.2-25.6,0-38.5-0.1c3.8-13.5,8.2-27,11.2-40.7c1.3-5.8,0.8-12.7-1.1-18.4
					c-4.2-12.8-16.8-20.9-32.7-19.8c-11.3,0.8-22.1,9.4-26.4,21.9c-2.9,8.3-5.9,16.6-8.7,24.9c-3.5,10.7-6.8,21.5-10.2,32.2
					c-23.1,0-46.1,0-69.2-0.1c4.6-9.7,9.1-19.5,13.9-29.2c0.6-1.3,2.3-2.3,3.7-2.9c8.9-3.3,16.7-7.9,23.2-14.9
					c14.8-16,17.5-34.3,11.5-54.6c-0.7-2.2-0.9-4.9-0.3-7.1c3.2-11.6,3-23-2.1-34c-1.8-3.8-1.2-6.8,0.2-10.3
					c3.7-9.6,5.6-19.5,3.1-29.7C351.6,105,348.8,97.1,346.4,89L346.4,89z M416.3,196c13.8,0,27.6,0,41.5,0c6,0,9.6-3.1,9.4-7.9
					c-0.1-4.2-3.7-7.1-9.2-7.1c-27.3,0-54.6,0-81.9,0c-5.9,0-9.4,2.8-9.4,7.3c-0.1,4.6,3.8,7.7,9.7,7.7
					C389.7,196,403,195.9,416.3,196L416.3,196z M417.2,136.9c-13.6,0-27.3,0-41,0c-6,0-9.4,2.6-9.5,7.2c-0.2,4.6,3.7,7.8,9.7,7.8
					c27.1,0,54.3,0,81.4,0c6,0,9.6-3,9.5-7.8c-0.1-4.4-3.7-7.1-9.6-7.1C444.1,136.9,430.6,136.9,417.2,136.9L417.2,136.9z"/>
				<path class="st4" d="M112.5,132.4c1.1-16.5,5.1-32.3,11.4-47.5c7.9-18.9,19-35.9,34.1-49.6c10.9-10,23.8-17.7,35.9-26.5
					c5.2,5.7,10.4,11.3,15.8,17.2c19.1-16,41-19.3,63.4-5.2c20.4,12.8,27.3,32.1,22.4,56.3c9.9,1.2,18.3,5.6,25.6,12.1
					c1,1.3,1.9,2.7,2.9,4.1c8.7,11.8,11.8,25,7.8,39c-1.9,6.5-5.9,12.4-9.1,18.8c13.1,13.6,14.5,24.8,4.3,39c-1.8,0-3.6,0.1-5.4,0
					c-7.3-0.3-14.8-0.1-21.3-4.4c-2.5-6.3-5.2-12.6-7.5-19c-1-2.8-2.7-3.6-5.6-3.7c-9.8-0.4-18.3-4.3-25.6-10.9
					c-6.8-6-11-13.6-13.5-21.9c-0.8-0.1-1.1-0.3-1.4-0.2c-19.6,6.3-37.3,2.7-53.2-10.4c-1.1-0.9-3.7-0.9-5.1-0.2
					c-14,6.3-27.9,6.9-41.8-0.2c-2.8-1.4-4.3-0.8-6.4,1.1C132.4,127.2,123.1,131.5,112.5,132.4L112.5,132.4z"/>
				<path class="st5" d="M371.3,453.9c-2.5-1-5-2.6-7.6-2.9c-8.4-0.9-16.9-1.4-25.4-2c0.5-1.9,1-3.9,1.6-5.7
					c5.7-16.5,11.4-33,17-49.5c11.1-32.6,22.2-65.2,33.3-97.7c1-2.8,2.1-5.6,3.1-8.4c4.7-13.8,9.4-27.7,14.2-41.4
					c3-8.6,10.3-11.4,17.1-6.6c3.8,2.6,5.4,6.2,4.1,10.8c-4.2,15.2-8.3,30.4-12.5,45.5c-6,21.1-12.1,42.1-18.1,63.2
					C389.2,390.7,380.3,422.3,371.3,453.9L371.3,453.9z"/>
				<path class="st6" d="M327.2,190.1c10.1-14.3,8.8-25.4-4.3-39c3.2-6.4,7.2-12.3,9.1-18.8c4-14.1,0.8-27.2-7.8-39
					c-1-1.3-1.9-2.7-2.9-4.1c8.4,0,16.8-0.1,25.1-0.1c2.4,8.1,5.2,16,7.1,24.2c2.4,10.2,0.6,20.1-3.1,29.7
					c-1.4,3.6-1.9,6.6-0.2,10.3c5.1,11,5.3,22.4,2.1,34c-0.6,2.2-0.4,4.9,0.3,7.1c6,20.3,3.3,38.6-11.5,54.6
					c-6.5,7.1-14.4,11.6-23.2,14.9c-1.4,0.5-3.1,1.6-3.7,2.9c-4.8,9.7-9.3,19.4-13.9,29.2c-8.3,0-16.6,0-24.9,0.1
					c0.1-0.5,0.1-1.1,0.3-1.4c11.1-14.9,18.6-31.6,23.7-49.4c1.2,0,2.3,0,3.5,0c18.8,1,36.2-19.1,31.4-37.7
					C332.8,201.4,329.6,195.8,327.2,190.1L327.2,190.1z"/>
				<path class="st6" d="M416.3,295.9c4.2-15.2,8.3-30.4,12.5-45.6c1.3-4.6-0.4-8.2-4.1-10.8c-6.8-4.8-14.1-2.1-17.1,6.6
					c-4.8,13.8-9.5,27.6-14.2,41.5c-1,2.8-2,5.6-3.1,8.4c-7,0-13.9-0.1-20.8-0.1c3.4-10.7,6.7-21.5,10.2-32.2
					c2.7-8.4,5.8-16.6,8.7-24.9c4.3-12.5,15.1-21.1,26.4-21.9c16-1.1,28.6,7.1,32.7,19.8c1.9,5.7,2.3,12.6,1.1,18.4
					c-3,13.7-7.4,27.1-11.2,40.7C430.3,295.9,423.3,295.9,416.3,295.9L416.3,295.9z"/>
				<path class="st7" d="M321.3,457.1c-8.2,9.4-10.7,20.2-7.9,32.4c2,8.6,7.9,14.2,14.6,19.3c-30.4,0-60.8,0-91.3,0
					c-1.5,0-3-0.2-4.5-0.2c0-18.8,0.1-37.7,0-56.5c0-5.4-2.9-8.9-7.3-9c-4.6-0.2-7.7,3.4-7.7,9.1c0,18.8,0,37.7,0,56.5
					c-33,0-66.1,0-99.1-0.1c0-5.5,0-11,0-16.5c0-13.1,0.1-26.3,0-39.5c0-5-3.8-9.6-7.6-9.6c-4.4,0-7.4,3.7-7.4,9.3
					c0,18.8,0,37.6,0,56.4c-0.7,0-1.4-0.1-2.1-0.1c-0.2-0.4-0.3-1.1-0.7-1.2c-9.9-4.4-13.5-12.4-13.3-22.8c0.2-16.6-0.2-33.3,0.2-50
					c0.2-6.9,1.1-14,3.2-20.5c3.6-11,8.5-21.5,12.8-32.2c0.3,0.1,0.6,0.1,0.9,0.2c11.7,13.3,23.3,26.7,35,40
					c8.1,9.2,16.1,18.6,24.3,27.7c3.2,3.6,5.6,3.1,8.6-0.5c3.8-4.6,7.9-8.9,11.8-13.5c3.9-4.5,7.6-9.2,11.4-13.8
					c1.4-1.3,3-2.6,4.3-4c15.9-18.2,31.8-36.4,47.7-54.6c2.9,3.1,6.1,6.1,8.7,9.5c16.9,22,24,47,23.2,74.6c-0.2,7.1,2.5,9.6,9.5,9.7
					C299.6,457.1,310.4,457.1,321.3,457.1L321.3,457.1z"/>
				<path class="st8" d="M8.4,190.1c6.6-0.5,13.2-0.9,19.8-1.6c4.5-0.4,7-3.2,8.5-7.4c1.8-5,3.7-10,5.9-14.8c0.6-1.4,2.4-3,3.8-3.1
					c21.2-1.5,33.9-13.5,40.4-32.4c8.3,0.7,16.4,1.5,24.6,2.2c-3.7,6.4-7.9,12.7-11.1,19.4c-10.1,21-15,43.1-13.9,66.5
					c-5.7,1.7-12,2.3-16.8,5.3c-11,6.9-15,19.1-7.1,29.3c9,11.5,19.5,13.3,34.9,10.6c0.5,2,0.7,4.3,1.6,6.1
					c17,34.4,43.3,58.2,79.7,70.8c4.3,1.5,8.4,3.3,12.7,5c-4.3,0.6-8.7,1.3-13,1.9c-7.6,0.1-15.2,0.2-22.8,0.3
					c-5-0.8-10.1-1.5-15.1-2.2c-6.7-2-13.4-4-20.2-6c-13.8-6.1-27.1-13.2-38.8-23c-19.2-16.1-33.2-35.6-41.4-59.3
					c-0.5-1.6-1.3-3.1-1.6-4.7c-1-5.9-3.7-7.8-10.2-8.2C16.5,243.9,7.8,236.7,3,226c-4.8-10.9-3.9-21.7,2.7-31.8
					C6.6,192.8,7.5,191.5,8.4,190.1L8.4,190.1z"/>
				<path class="st9" d="M103.4,381.8c-4.3,10.7-9.2,21.3-12.8,32.2c-2.1,6.5-3,13.6-3.2,20.5c-0.4,16.6,0,33.3-0.2,50
					c-0.2,10.5,3.4,18.4,13.3,22.8c0.3,0.1,0.5,0.8,0.7,1.2c-7.8,0.1-15.6,0.2-23.4,0.1c-13.1-0.2-21.5-8.6-21.5-21.7
					c-0.1-16.6-0.4-33.3-0.1-49.9c0.5-26.6,10.1-49.9,27.5-70c1.2-1.4,3.1-2.4,4.6-3.5C93.4,369.7,98.4,375.8,103.4,381.8
					L103.4,381.8z"/>
				<path class="st9" d="M217.4,508.6c0-18.8-0.1-37.7,0-56.5c0-5.6,3.2-9.2,7.7-9.1c4.4,0.2,7.2,3.6,7.3,9c0,18.8,0,37.7,0,56.5
					C227.3,508.5,222.4,508.6,217.4,508.6L217.4,508.6z"/>
				<path class="st9" d="M103.4,508.7c0-18.8,0-37.6,0-56.4c0-5.6,2.9-9.2,7.4-9.3c3.8,0,7.6,4.5,7.6,9.6c0.1,13.1,0,26.3,0,39.5
					c0,5.5,0,11,0,16.5C113.3,508.6,108.3,508.6,103.4,508.7L103.4,508.7z"/>
				<path class="st6" d="M103.4,381.8c-5.1-6.1-10.1-12.1-15.1-18.2c6.6-5.8,12.9-11.9,19.8-17.3c3.6-2.8,8.1-4.3,12.2-6.4
					c6.7,2,13.4,4,20.2,6c-15.3,8.8-27.2,20.9-36.1,36.1C104,382,103.7,381.9,103.4,381.8z"/>
				<path class="st2" d="M86.4,218.9c-1.2-23.4,3.8-45.5,13.9-66.5c3.2-6.7,7.4-12.9,11.1-19.4c0.4-0.2,0.8-0.5,1.2-0.7
					c10.7-0.9,19.9-5.2,27.9-12.1c2.2-1.9,3.6-2.5,6.4-1.1c13.8,7.1,27.8,6.5,41.8,0.2c1.4-0.6,4-0.6,5.1,0.2
					c15.9,13.1,33.6,16.7,53.2,10.4c0.3-0.1,0.6,0.1,1.4,0.2c2.5,8.3,6.7,15.9,13.5,21.9c7.3,6.6,15.8,10.4,25.6,10.9
					c2.9,0.1,4.5,0.9,5.6,3.7c2.3,6.4,5,12.7,7.5,19c0.5,3.4,1,6.8,1.3,10.3c0.5,6.7,1.6,13.5,1.2,20.2c-0.6,9.7-2.4,19.2-3.6,28.9
					c-5,17.8-12.5,34.5-23.7,49.4c-0.3,0.4-0.2,1-0.3,1.4c-0.9,0.7-1.9,1.3-2.6,2.1c-9.1,11.3-19.7,21-32.2,28.4
					c-8.2,4.9-16.8,9.1-25.3,13.6l-24,6c-4.2-1.7-8.4-3.5-12.7-5c-36.4-12.6-62.7-36.4-79.7-70.8c-0.9-1.9-1.1-4.1-1.6-6.1
					c12-2.5,21.2-12.4,19.7-23c-0.8-5.4-4.6-10.3-7.1-15.4c4.5-5.2,2.2-11.4,2.5-17.2c0.3-5-2.9-8.2-7.1-8.4
					c-4.4-0.1-7.6,3.3-7.8,8.5c-0.1,3.8-0.1,7.6-0.2,11.4C93.7,219.6,90,219.3,86.4,218.9L86.4,218.9z M225.5,225.9
					c-0.6,0.8-1.2,1.6-1.9,2.3c-7.7,8.5-7.5,20.1,0.5,28.1c10.8,10.9,31.2,12.2,43.4,2.8c11.9-9.1,11.7-24.7-0.2-33.8
					c-9.1-7-19.2-7.3-29.8-5.4c-0.1-4.3,0-8.6-0.3-13c-0.2-3.9-2.8-6.6-6.3-6.5c-2.6,0.1-7,2.1-7.5,4
					C221.9,211.6,220.3,219.2,225.5,225.9L225.5,225.9z M167.6,234.2c8.7,0.1,15.9-3.2,21.7-9.6c2.9-3.2,2.9-7.5,0.2-10.4
					c-2.8-3-7.3-3.1-10.8-0.1c-8.3,7-13.8,7.1-22,0.2c-3.7-3.1-7.8-3.2-10.8-0.3c-3.3,3.2-3.3,7.4,0.3,11.1
					C152,231.1,159.1,234.4,167.6,234.2L167.6,234.2z"/>
				<path class="st10" d="M416.4,195.9c-13.3,0-26.6,0-40,0c-6,0-9.8-3.1-9.7-7.7c0.1-4.6,3.5-7.3,9.4-7.3c27.3,0,54.6,0,81.9,0
					c5.5,0,9,2.8,9.2,7.1c0.2,4.9-3.4,7.9-9.4,7.9C444,196,430.2,196,416.4,195.9L416.4,195.9z"/>
				<path class="st11" d="M417.2,136.9c13.5,0,27,0,40.5,0c5.9,0,9.5,2.8,9.6,7.1c0.1,4.9-3.5,7.8-9.5,7.8c-27.1,0-54.3,0-81.4,0
					c-6,0-9.8-3.2-9.7-7.8c0.2-4.6,3.6-7.2,9.5-7.2C389.9,136.9,403.5,136.9,417.2,136.9L417.2,136.9z"/>
				<path class="st12" d="M299.4,245c1.3-9.6,3-19.2,3.6-28.9c0.4-6.7-0.6-13.5-1.2-20.2c-0.3-3.4-0.9-6.8-1.3-10.3
					c6.5,4.3,14,4.1,21.3,4.4c1.8,0.1,3.6,0,5.4,0c2.4,5.7,5.6,11.3,7.1,17.3c4.8,18.6-12.7,38.7-31.4,37.7
					C301.7,245,300.5,245,299.4,245L299.4,245z"/>
				<path class="st3" d="M215.3,340c12.2,5.7,23.3,12.9,32.1,23.4c-15.9,18.2-31.8,36.4-47.7,54.6c-1.3,1.5-2.9,2.7-4.3,4
					c-1.7-7-3.3-14-5.1-21c-1.3-5-4.4-8.3-9.8-9.1c-0.1-0.6-0.1-1.3-0.2-1.9c5.5-2.5,7.7-7,7.9-12.7c0.1-4.3-0.1-8.6,0.1-12.9
					c0.4-7.8-2.4-13.6-9.9-16.5c4.3-0.6,8.7-1.3,13-1.9C199.3,343.9,207.3,342,215.3,340L215.3,340z"/>
				<path class="st4" d="M180.5,391.9c5.4,0.7,8.5,4.1,9.8,9.1c1.8,7,3.4,14,5.1,21c-3.8,4.6-7.5,9.2-11.4,13.8
					c-3.9,4.5-8,8.9-11.8,13.5c-3,3.6-5.4,4-8.6,0.5c-8.2-9.1-16.2-18.5-24.3-27.7c1.7-6.7,3.4-13.4,5.1-20
					c1.5-5.5,4.5-9.5,10.6-10.2C163.6,391.8,172,391.8,180.5,391.9L180.5,391.9z"/>
				<path class="st13" d="M155.1,391.8c-6.1,0.7-9.1,4.7-10.6,10.2c-1.8,6.7-3.4,13.4-5.1,20c-11.7-13.3-23.3-26.7-35-40
					c8.9-15.2,20.8-27.3,36.1-36.1c5,0.8,10.1,1.5,15.1,2.2c-6,3.5-8.9,8.5-8.3,15.6c0.4,4.6,0,9.2,0.1,13.9
					c0.1,5.8,2.5,10.1,8,12.5L155.1,391.8L155.1,391.8z"/>
				<path class="st14" d="M86.4,218.9c3.7,0.4,7.3,0.7,11,1.1c2.6,7.1,5.8,8.5,12.6,5.7c2.5,5.1,6.3,10.1,7.1,15.4
					c1.5,10.6-7.6,20.5-19.7,23c-15.4,2.7-25.9,0.9-34.9-10.6c-7.9-10.1-4-22.4,7.1-29.3C74.4,221.2,80.7,220.6,86.4,218.9
					L86.4,218.9z"/>
				<path class="st4" d="M155.2,390.1c-5.5-2.3-7.9-6.7-8-12.5c-0.1-4.6,0.3-9.3-0.1-13.9c-0.6-7.1,2.4-12.1,8.3-15.6
					c7.6-0.1,15.2-0.2,22.8-0.3c7.6,2.9,10.3,8.7,9.9,16.5c-0.2,4.3,0.1,8.6-0.1,12.9c-0.2,5.7-2.4,10.2-7.9,12.7
					C171.9,390,163.6,390,155.2,390.1L155.2,390.1z"/>
				<path class="st14" d="M237.6,220c10.6-1.9,20.7-1.6,29.8,5.4c11.9,9.2,12.1,24.7,0.2,33.8c-12.2,9.4-32.6,8-43.4-2.8
					c-8-8.1-8.2-19.6-0.5-28.1c0.7-0.7,1.2-1.6,1.9-2.3C232.4,228.4,235.7,226.8,237.6,220L237.6,220z"/>
				<path class="st15" d="M167.6,234.2c-8.5,0.2-15.6-3.1-21.4-9.1c-3.6-3.7-3.5-7.9-0.3-11.1c3-2.9,7.1-2.8,10.8,0.3
					c8.3,6.9,13.7,6.8,22-0.2c3.5-2.9,8-2.8,10.8,0.1c2.7,2.9,2.6,7.2-0.2,10.4C183.5,231,176.3,234.3,167.6,234.2L167.6,234.2z"/>
				<path class="st16" d="M109.9,225.7c-6.9,2.8-10,1.4-12.6-5.7c0.1-3.8,0.1-7.6,0.2-11.4c0.2-5.2,3.4-8.6,7.8-8.5
					c4.2,0.1,7.4,3.4,7.1,8.4C112.1,214.3,114.5,220.5,109.9,225.7L109.9,225.7z"/>
				<path class="st16" d="M237.6,220c-2,6.9-5.2,8.4-12.2,5.9c-5.1-6.7-3.5-14.3-1.8-21.4c0.5-1.9,4.8-3.9,7.5-4
					c3.5-0.1,6.1,2.6,6.3,6.5C237.6,211.3,237.6,215.6,237.6,220L237.6,220z"/>
				<path class="st17" d="M155.2,390.1c8.4,0,16.7-0.1,25-0.1c0.1,0.6,0.1,1.3,0.2,1.9c-8.5,0-17,0-25.4-0.1
					C155.1,391.2,155.2,390.6,155.2,390.1L155.2,390.1z"/>
			</g>
		</g>
	</g>
</g>
</svg>
