<svg version="1.1" xmlns="http://www.w3.org/2000/svg" xmlns:xlink="http://www.w3.org/1999/xlink" viewBox="0 0 172 172">
    <g fill="none" fill-rule="nonzero" stroke="none" stroke-width="1" stroke-linecap="butt" stroke-linejoin="miter" stroke-miterlimit="10" stroke-dasharray="" stroke-dashoffset="0" font-family="none" font-weight="none" font-size="none" text-anchor="none" style="mix-blend-mode: normal">
        <path d="M0,172v-172h172v172z" fill="none"></path>
        <g>
            <path d="M94.06922,117.79984v11.89219c0,1.11531 -0.90031,2.01563 -2.01562,2.01563h-72.78422c-1.11531,0 -2.01562,-0.90031 -2.01562,-2.01562v-11.89219c0,-1.11531 0.90031,-2.01562 2.01563,-2.01562h26.31063c2.78156,0 5.30109,1.12875 7.12187,2.94953c1.8275,1.8275 2.95625,4.34703 2.95625,7.12859c0,-2.78156 1.12875,-5.30109 2.95625,-7.12859c1.82078,-1.82078 4.34031,-2.94953 7.12187,-2.94953h26.31734c1.11531,0 2.01563,0.90031 2.01563,2.01563z" fill="#efefef"></path>
            <path d="M165.95313,8.90234v87.51172c0,3.70875 -3.01,6.71875 -6.71875,6.71875h-69.04859v-0.55766c0,-2.84875 -0.44344,-5.59672 -1.26984,-8.17672c-3.45344,-10.84406 -13.61219,-18.69828 -25.60516,-18.69828h-7.67953c4.60234,0 9.20469,-1.55875 12.59766,-4.66953h6.9875c2.96969,0 5.375,-2.40531 5.375,-5.375v-18.45641c0,-13.76672 -11.15984,-24.92656 -24.92656,-24.92656h-0.00672c-3.07047,0 -6.02,0.55766 -8.73437,1.57219v-14.9425c0,-3.70875 3.01,-6.71875 6.71875,-6.71875h105.59188c3.70875,0 6.71875,3.01 6.71875,6.71875z" fill="#efefef"></path>
            <path d="M157.21875,10.91797v83.48047h-68.30281c-3.45344,-10.84406 -13.61219,-18.69828 -25.60516,-18.69828h-7.67953c4.60234,0 9.20469,-1.55875 12.59766,-4.66953h6.9875c2.96969,0 5.375,-2.40531 5.375,-5.375v-18.45641c0,-13.76672 -11.15984,-24.92656 -24.92656,-24.92656h-0.00672v-11.35469z" fill="#13bf6d"></path>
            <path d="M93.81391,94.39844h-4.89797c-3.45344,-10.84406 -13.61219,-18.69828 -25.60516,-18.69828h-7.67953c4.60234,0 9.20469,-1.55875 12.59766,-4.66953h6.9875c2.96969,0 5.375,-2.40531 5.375,-5.375v-18.45641c0,-13.76672 -11.15984,-24.92656 -24.92656,-24.92656h-0.00672v-4.70312c16.34672,0 29.63641,13.28969 29.63641,29.62969v18.45641c0,4.27984 -2.68078,7.93484 -6.45,9.39281c7.55187,4.25297 12.82609,11.31437 14.96938,19.35z" fill="#139c6e"></path>
            <path d="M46.92375,18.87297c2.74125,-0.84656 5.67734,-1.30344 8.73438,-1.30344v4.70313c-3.07047,0 -6.02,0.55766 -8.73437,1.57219z" fill="#afafaf"></path>
            <path d="M94.88891,102.57516v0.55766h-4.70312v-0.55766c0,-2.84875 -0.44344,-5.59672 -1.26984,-8.17672h4.89797c0.70547,2.64047 1.075,5.38844 1.075,8.17672z" fill="#afafaf"></path>
            <path d="M80.59141,47.19922v18.45641c0,2.96969 -2.40531,5.375 -5.375,5.375h-6.9875c3.23844,-2.96297 5.375,-7.33687 5.375,-13.115v-9.35922c0,-2.15 -1.67969,-3.92375 -3.82969,-4.03125l-27.83578,-1.37734c-2.29781,-0.11422 -4.23281,1.72672 -4.23281,4.03125v10.73656c0,5.78484 2.12984,10.15875 5.34813,13.115h-6.94719c-2.96969,0 -5.375,-2.40531 -5.375,-5.375v-18.45641c0,-10.68953 6.73219,-19.81359 16.19219,-23.35437c2.71438,-1.01453 5.66391,-1.57219 8.73438,-1.57219h0.00672c13.76672,0 24.92656,11.15984 24.92656,24.92656z" fill="#7c7b7a"></path>
            <path d="M90.18578,102.57516v13.20906h-24.44953c-2.78156,0 -5.30109,1.12875 -7.12187,2.94953c-1.8275,1.8275 -2.95625,4.34703 -2.95625,7.12859c0,-2.78156 -1.12875,-5.30109 -2.95625,-7.12859c-1.82078,-1.82078 -4.34031,-2.94953 -7.12187,-2.94953h-24.44281v-13.20906c0,-14.84172 12.03328,-26.875 26.875,-26.875h15.29859c11.99297,0 22.15172,7.85422 25.60516,18.69828c0.82641,2.58 1.26984,5.32797 1.26984,8.17672z" fill="#fc5d3d"></path>
            <path d="M90.18578,111.08109v4.70313h-24.44953c-2.78156,0 -5.30109,1.12875 -7.12187,2.94953c-1.8275,1.8275 -2.95625,4.34703 -2.95625,7.12859c0,-2.78156 -1.12875,-5.30109 -2.95625,-7.12859c-1.82078,-1.82078 -4.34031,-2.94953 -7.12187,-2.94953h-24.44281v-4.70312h24.44281c3.77594,0 7.33687,1.40422 10.07813,3.97078c2.74125,-2.56656 6.30219,-3.97078 10.07812,-3.97078z" fill="#b25035"></path>
            <rect x="11.67" y="212.85" transform="scale(0.67188,0.67188)" width="232.66" height="37.48" fill="#f0c020"></rect>
            <path d="M120.29586,115.9495c-2.50542,-0.82506 -4.46192,-1.35853 -5.77208,-7.00161c-0.42664,-1.83892 -3.05569,-1.83355 -3.48098,0c-1.28127,5.51811 -3.06778,6.10869 -5.77208,7.00228c-1.62862,0.53817 -1.63266,2.85412 0,3.39364c4.49216,1.48417 5.00144,3.67919 5.77208,7.00161c0.42798,1.84295 3.05367,1.84228 3.48166,0c1.27992,-5.51744 3.16386,-6.14027 5.77208,-7.00161c1.62795,-0.53884 1.63198,-2.8548 -0.00067,-3.39431z" fill="#000000"></path>
            <path d="M115.50405,117.70242c-0.98766,0.69875 -1.87453,1.62594 -2.64047,2.98313c-0.63828,-1.06828 -1.51172,-2.07609 -2.80172,-2.95625c1.04141,-0.71219 1.97531,-1.68641 2.76812,-3.1175c0.80625,1.45125 1.72672,2.41203 2.67406,3.09062z" fill="#f0c020"></path>
            <path d="M32.76734,111.08109c0.08062,1.65281 0.62484,3.28547 1.62594,4.70313h-13.25609v-10.36031h13.25609c-1.19594,1.68641 -1.74016,3.68859 -1.62594,5.65719z" fill="#ffb69f"></path>
            <path d="M32.76734,111.08109c0.08062,1.65281 0.62484,3.28547 1.62594,4.70313h-13.25609v-4.70312z" fill="#ea8f7c"></path>
            <path d="M90.18578,105.42391v10.36031h-12.94703c1.00781,-1.41766 1.54531,-3.05031 1.62594,-4.70312c0.11422,-1.96859 -0.43,-3.97078 -1.62594,-5.65719z" fill="#ffb69f"></path>
            <path d="M90.18578,111.08109v4.70313h-12.94703c1.00781,-1.41766 1.54531,-3.05031 1.62594,-4.70312z" fill="#ea8f7c"></path>
            <rect x="11.67" y="212.85" transform="scale(0.67188,0.67188)" width="232.66" height="7" fill="#e8a61e"></rect>
            <path d="M165.50498,143.00859h-159.00997c-1.85505,0 -3.35937,-1.50433 -3.35937,-3.35937v-4.58152c0,-1.85505 1.50433,-3.35937 3.35938,-3.35937h159.01064c1.85505,0 3.35938,1.50433 3.35938,3.35938v4.58152c-0.00067,1.85505 -1.50433,3.35938 -3.36005,3.35938z" fill="#f0c020"></path>
            <path d="M73.60391,48.55641v9.35922c0,5.77813 -2.13656,10.15203 -5.375,13.115c-3.39297,3.11078 -7.99531,4.66953 -12.59766,4.66953c-4.59563,0 -9.19125,-1.55203 -12.5775,-4.66953c-3.21828,-2.95625 -5.34813,-7.33016 -5.34813,-13.115v-10.73656c0,-2.30453 1.935,-4.14547 4.23281,-4.03125l27.83578,1.37734c2.15,0.1075 3.82969,1.88125 3.82969,4.03125z" fill="#ffb69f"></path>
            <path d="M27.48775,23.48942c-2.50542,-0.82506 -4.46192,-1.35853 -5.77208,-7.00161c-0.42664,-1.83892 -3.05569,-1.83355 -3.48098,0c-1.28127,5.51811 -3.06778,6.10869 -5.77208,7.00228c-1.62862,0.53817 -1.63266,2.85412 0,3.39364c4.49216,1.48417 5.00144,3.67919 5.77208,7.00161c0.42798,1.84295 3.05367,1.84228 3.48166,0c1.27992,-5.51744 3.16386,-6.14027 5.77208,-7.00161c1.62795,-0.53884 1.63131,-2.8548 -0.00067,-3.39431z" fill="#000000"></path>
            <path d="M22.69594,25.24234c-0.98766,0.69875 -1.87453,1.62594 -2.64047,2.98312c-0.63828,-1.06828 -1.51172,-2.07609 -2.80172,-2.95625c1.04141,-0.71219 1.97531,-1.68641 2.76813,-3.1175c0.80625,1.45125 1.72672,2.41203 2.67406,3.09062z" fill="#f0c020"></path>
            <path d="M27.90028,100.41373c-0.91106,-0.17536 -1.50769,-1.05484 -1.333,-1.96658c0.13639,-0.71219 0.31108,-1.42572 0.51936,-2.12111c0.26539,-0.88889 1.1993,-1.39548 2.0902,-1.12875c0.88889,0.26606 1.39347,1.20198 1.12808,2.0902c-0.17603,0.58856 -0.32317,1.19123 -0.43873,1.79323c-0.17334,0.90502 -1.04745,1.50769 -1.96591,1.333zM30.67177,92.17252c-0.7525,-0.54287 -0.92248,-1.59234 -0.37961,-2.34484c4.10448,-5.69078 10.72917,-9.08778 17.72003,-9.08778c0.92786,0 1.67969,0.75183 1.67969,1.67969c0,0.92786 -0.75183,1.67969 -1.67969,1.67969c-5.91452,0 -11.51997,2.8763 -14.99491,7.69431c-0.54288,0.75116 -1.59302,0.92181 -2.34552,0.37894z" fill="#ffcbc3"></path>
            <path d="M150.5,89.35938h-45.01562c-0.92786,0 -1.67969,-0.75183 -1.67969,-1.67969c0,-0.92786 0.75183,-1.67969 1.67969,-1.67969h43.33594v-68.36328c0,-0.92786 0.75183,-1.67969 1.67969,-1.67969c0.92786,0 1.67969,0.75183 1.67969,1.67969v70.04297c0,0.92786 -0.75183,1.67969 -1.67969,1.67969zM98.76563,89.35938h-2.01562c-0.92786,0 -1.67969,-0.75183 -1.67969,-1.67969c0,-0.92786 0.75183,-1.67969 1.67969,-1.67969h2.01563c0.92786,0 1.67969,0.75183 1.67969,1.67969c0,0.92786 -0.75183,1.67969 -1.67969,1.67969z" fill="#76ffbb"></path>
            <path d="M164.15922,169.87016c0.92786,0 1.67969,-0.75183 1.67969,-1.67969v-23.51966c2.623,-0.17334 4.70514,-2.35627 4.70514,-5.02227v-4.58084c0,-2.77619 -2.25616,-5.03436 -5.031,-5.03906c-0.00336,0 -0.00672,-0.00067 -0.01075,-0.00067h-11.19344c-0.92719,0 -1.67969,0.75183 -1.67969,1.67969c0,0.92719 0.7525,1.67969 1.67969,1.67969h11.18941c0.00202,0 0.00403,0.00067 0.00672,0.00067c0.92584,0 1.67969,0.75317 1.67969,1.67969v4.58084c0,0.92652 -0.75384,1.67969 -1.67969,1.67969c-7.94358,0 -151.00794,0 -159.01064,0c-0.92584,0 -1.67969,-0.75317 -1.67969,-1.67969v-4.58084c0,-0.92652 0.75384,-1.67969 1.67969,-1.67969c0.00202,0 0.00403,-0.00067 0.00672,-0.00067c4.91544,0 128.50684,0 134.37097,0c0.92047,0 1.67969,-0.7525 1.67969,-1.67969c0,-0.92786 -0.75922,-1.67969 -1.67969,-1.67969h-45.13992c0.01008,-0.11086 0.0168,-0.22239 0.0168,-0.33594v-11.89219c0,-2.03713 -1.65752,-3.69531 -3.69531,-3.69531h-0.18812v-9.29203h67.36891c4.63123,0 8.39844,-3.7672 8.39844,-8.39844v-87.51172c0,-4.63123 -3.7672,-8.39844 -8.39844,-8.39844h-105.59187c-4.63123,0 -8.39844,3.7672 -8.39844,8.39844v13.80837c-9.73144,4.14748 -16.19219,13.8413 -16.19219,24.4885v18.45641c0,3.89016 3.16453,7.05469 7.05469,7.05469c0.92786,0 1.67969,-0.75183 1.67969,-1.67969c0,-0.92786 -0.75183,-1.67969 -1.67969,-1.67969c-2.0378,0 -3.69531,-1.65819 -3.69531,-3.69531v-18.45641c0,-9.64745 6.06838,-18.40064 15.10039,-21.78084c2.60284,-0.9722 5.34342,-1.46603 8.1532,-1.46603c12.8187,0 23.24688,10.42817 23.24688,23.24688v18.45641c0,2.03713 -1.65752,3.69531 -3.69531,3.69531c-0.92786,0 -1.67969,0.75183 -1.67969,1.67969c0,0.92786 0.75183,1.67969 1.67969,1.67969c3.89016,0 7.05469,-3.16453 7.05469,-7.05469v-18.45641c0,-14.10602 -11.03622,-25.67772 -24.93328,-26.5478v-8.05377h52.07031c0.92719,0 1.67969,-0.7525 1.67969,-1.67969c0,-0.92719 -0.7525,-1.67969 -1.67969,-1.67969h-53.75c-0.92786,0 -1.67969,0.75183 -1.67969,1.67969v9.73345c-1.82481,0.11355 -3.62208,0.40581 -5.375,0.88687v-12.63595c0,-2.77887 2.26019,-5.03906 5.03906,-5.03906h105.59187c2.77887,0 5.03906,2.26019 5.03906,5.03906v87.51172c0,2.77887 -2.26019,5.03906 -5.03906,5.03906h-67.39108c-0.07055,-1.81944 -0.31309,-3.61738 -0.72361,-5.375h66.09906c0.92786,0 1.67969,-0.75183 1.67969,-1.67969v-83.48047c0,-0.92786 -0.75183,-1.67969 -1.67969,-1.67969h-34.37312c-0.92719,0 -1.67969,0.7525 -1.67969,1.67969c0,0.92719 0.7525,1.67969 1.67969,1.67969h32.69344v80.12109h-65.42383c-1.28798,-3.51995 -3.21694,-6.66769 -5.62763,-9.33369l10.38517,-8.51602c0.71689,-0.58856 0.8217,-1.64677 0.23381,-2.36433c-0.58789,-0.71823 -1.64609,-0.8217 -2.36433,-0.23448l-10.66602,8.74647c-4.22811,-3.68187 -9.52047,-6.09189 -15.28381,-6.78795c5.76334,-3.66441 8.49116,-9.60445 8.49116,-16.31581v-9.35922c0,-3.04897 -2.38314,-5.55708 -5.42606,-5.70892l-27.83578,-1.37734c-3.17528,-0.15588 -5.99581,2.36366 -5.99581,5.70892v10.73589c0,6.74764 2.74058,12.68298 8.47906,16.32992c-14.09527,1.73545 -25.0475,13.77478 -25.0475,28.33163v11.52938h-0.18812c-2.0378,0 -3.69531,1.65819 -3.69531,3.69531v11.89219c0,0.11355 0.00672,0.22508 0.0168,0.33594h-9.09383c-0.00336,0 -0.00672,0.00067 -0.01075,0.00067c-2.77484,0.0047 -5.03033,2.26288 -5.03033,5.03906v4.58084c0,2.666 2.08214,4.84892 4.70514,5.02227v23.51966c0,0.92786 0.75183,1.67969 1.67969,1.67969c0.92786,0 1.67969,-0.75183 1.67969,-1.67969v-23.50219h152.95906v23.50219c0,0.9292 0.75183,1.68103 1.67969,1.68103zM92.38953,117.79984v11.89219c0,0.18812 -0.14781,0.33594 -0.33594,0.33594h-34.71578v-4.16563c0,-4.62048 3.73966,-8.39844 8.39844,-8.39844h26.31734c0.18812,0 0.33594,0.14781 0.33594,0.33594zM79.9753,114.10453c0.74108,-2.13925 0.817,-4.61377 -0.01209,-7.00094h8.54289v7.00094zM88.50609,102.57516v1.16906h-10.46781c-1.00714,-1.19862 -2.25145,-2.18628 -3.741,-2.91661c-0.83178,-0.40581 -1.83959,-0.0645 -2.24742,0.7693c-0.4085,0.83245 -0.0645,1.83892 0.76863,2.24809c4.24692,2.08147 5.41464,6.74025 3.48098,10.2602h-10.56322c-4.2832,0 -8.01412,2.27766 -10.07812,5.69616c-1.806,-2.99186 -4.945,-5.18352 -8.73303,-5.61284l34.96169,-28.66891c4.19317,4.57547 6.61931,10.65123 6.61931,17.05555zM39.38531,57.91361v-10.73589c0,-1.34173 1.12405,-2.41942 2.46981,-2.35358l27.83511,1.37734c1.25238,0.06248 2.23398,1.0965 2.23398,2.35358v9.35922c0,21.47581 -32.53891,21.48992 -32.53891,-0.00067zM48.01219,77.37984c1.38742,0 13.588,0 15.29859,0c6.06502,0 11.71145,2.13723 16.12231,5.805l-37.7063,30.91969h-6.39222c-0.52473,-0.95877 -0.83716,-2.01697 -0.89091,-3.12086c-0.15789,-2.72378 1.21811,-5.34544 3.83573,-6.85447c0.80356,-0.46292 1.0797,-1.49022 0.61611,-2.29378c-0.46225,-0.80423 -1.48888,-1.07903 -2.29445,-0.61678c-1.17511,0.67725 -2.18091,1.52986 -3.01739,2.52558h-10.7668v-1.16906c0,-13.89303 11.30228,-25.19531 25.19531,-25.19531zM22.81688,107.10359h8.85128c-0.45217,1.30075 -0.65844,2.68212 -0.57848,4.05947c0.04905,1.00781 0.24255,1.99681 0.57042,2.94147h-8.84322zM18.93344,129.69203v-11.89219c0,-0.18812 0.14781,-0.33594 0.33594,-0.33594h26.31063c4.65744,0 8.39844,3.77661 8.39844,8.39844v4.16563h-34.70906c-0.18812,0 -0.33594,-0.14714 -0.33594,-0.33594z" fill="#000000"></path>
            <path d="M94.82508,65.40838l3.29219,-8.3252h9.60983l3.29017,8.3252c0.34064,0.86134 1.31419,1.28664 2.17956,0.94466c0.86269,-0.34131 1.28597,-1.31687 0.94466,-2.17956c-2.93408,-7.42489 -6.63342,-16.78478 -9.65484,-24.42938c-0.56034,-1.41631 -2.56522,-1.41497 -3.12422,0l-9.66156,24.42938c-0.34131,0.86202 0.08197,1.83825 0.94398,2.17956c0.86202,0.3393 1.83892,-0.08197 2.18023,-0.94466zM102.92386,44.92963l3.47561,8.79417h-6.95323z" fill="#000000"></path>
            <path d="M123.16141,53.85213c-3.47897,0 -6.30891,2.83061 -6.30891,6.30958c0,3.47897 2.82994,6.30891 6.30891,6.30891h2.76141c1.1563,0 2.23734,-0.3178 3.16991,-0.86269c0.28756,0.51264 0.82977,0.86269 1.45931,0.86269c0.92786,0 1.67969,-0.75183 1.67969,-1.67969c0,-1.81272 0,-13.21377 0,-14.9902c0,-2.87092 -2.33611,-5.20703 -5.20703,-5.20703h-4.96516c-2.87092,0 -5.20703,2.33611 -5.20703,5.20703c0,0.92786 0.75183,1.67969 1.67969,1.67969c0.92786,0 1.67969,-0.75183 1.67969,-1.67969c0,-1.01923 0.82842,-1.84766 1.84766,-1.84766h4.96516c1.01856,0 1.84766,0.82842 1.84766,1.84766v4.05141zM125.92281,63.11123h-2.76141c-1.62661,0 -2.94953,-1.32359 -2.94953,-2.9502c0,-1.62661 1.32292,-2.94953 2.94953,-2.94953h5.71094v2.9502c0,1.62661 -1.32292,2.94953 -2.94953,2.94953z" fill="#000000"></path>
            <circle cx="219.67" cy="196.03" transform="scale(0.67188,0.67188)" r="2.5" fill="#000000"></circle>
            <path d="M62.46422,64.26417c0.3225,-0.86672 -0.12094,-1.84027 -0.98766,-2.16344c-0.85328,-0.31578 -1.84766,0.14781 -2.16344,0.98766c-0.56437,1.51172 -2.03578,2.52692 -3.655,2.52692c-1.61922,0 -3.08391,-1.0152 -3.64828,-2.52692c-0.31578,-0.83984 -1.31687,-1.30277 -2.16344,-0.98766c-0.84791,0.31511 -1.31755,1.26783 -0.98766,2.15672c1.04141,2.82188 3.77594,4.71723 6.79938,4.71723c3.01672,0 5.75125,-1.89469 6.80609,-4.71052z" fill="#000000"></path>
            <path d="M48.98506,52.11331c0,-0.92786 -0.75183,-1.67969 -1.67969,-1.67969c-0.92786,0 -1.67969,0.75183 -1.67969,1.67969v1.05619c0,0.92786 0.75183,1.67969 1.67969,1.67969c0.92786,0 1.67969,-0.75183 1.67969,-1.67969z" fill="#000000"></path>
            <path d="M64.0102,54.84986c0.92786,0 1.67969,-0.75183 1.67969,-1.67969v-1.05619c0,-0.92786 -0.75183,-1.67969 -1.67969,-1.67969c-0.92786,0 -1.67969,0.75183 -1.67969,1.67969v1.05619c0,0.92786 0.75183,1.67969 1.67969,1.67969z" fill="#000000"></path>
            <path d="M55.65745,59.67123c0.92786,0 1.67969,-0.75183 1.67969,-1.67969v-4.82205c0,-0.92786 -0.75183,-1.67969 -1.67969,-1.67969c-0.92786,0 -1.67969,0.75183 -1.67969,1.67969v4.82205c0,0.92786 0.75183,1.67969 1.67969,1.67969z" fill="#000000"></path>
            <circle cx="172.84" cy="16.25" transform="scale(0.67188,0.67188)" r="2.5" fill="#000000"></circle>
        </g>
    </g>
</svg>