<?xml version="1.0" encoding="UTF-8"?><svg xmlns="http://www.w3.org/2000/svg" viewBox="0 0 498.41 512"><defs><style>.d{fill:#dddcf4;}.e{fill:#5e7890;}.f{fill:#fdcabe;}.g{fill:#e3996e;}.h{fill:#6a829a;}.i{fill:#7293de;}.j{fill:#96a4bb;}.k{fill:#7a8fa5;}.l{fill:#5f7990;}.m{fill:#dcdbf3;}.n{fill:#fedcce;}.o{fill:#7b8fa5;}.p{fill:#fea1ac;}.q{fill:#7b90a6;}.r{fill:#fecabd;}.s{fill:#5c85d9;}.t{fill:#c6c3e9;}</style></defs><g id="a"/><g id="b"><g id="c"><g><path class="h" d="M8.37,190.08c-10.88-13.05-9.17-27.18,4.99-39.77C1.52,137.39-1.55,122.47,4.23,105.99c5.79-16.49,17.57-26.18,35.14-29.01-4.8-26.59,3.91-46.87,27.93-59.3,17.32-8.96,38.85-8.35,59.12,9.15,.81-1.42,1.61-2.78,2.36-4.15,5.64-10.25,14.09-17.07,25.18-20.71C155.47,1.47,156.88,.66,158.33,0c5.67,0,11.34,0,17,0,6.2,2.91,12.4,5.83,18.6,8.74-12.03,8.75-24.93,16.53-35.87,26.47-15.07,13.7-26.16,30.76-34.11,49.63-6.41,15.2-10.31,31.04-11.45,47.53-.39,.24-.77,.48-1.16,.72-8.16-.73-16.32-1.46-24.6-2.21-6.5,18.92-19.13,30.87-40.36,32.4-1.37,.1-3.18,1.73-3.81,3.09-2.22,4.82-4.16,9.78-5.91,14.79-1.46,4.17-4,6.94-8.46,7.37-6.6,.64-13.22,1.04-19.83,1.55Z"/><path class="n" d="M337.36,512c-3.11-1.08-6.23-2.15-9.34-3.23-6.71-5.04-12.61-10.68-14.64-19.29-2.86-12.13-.29-22.92,7.87-32.37,5.68-2.7,11.36-5.41,17.05-8.11,8.46,.64,16.94,1.08,25.37,2.02,2.63,.29,5.11,1.91,7.65,2.92,2.76,3.83,5.95,7.43,8.2,11.54,9.48,17.27,.75,40.66-19.99,45.67-.43,.1-.78,.56-1.17,.86h-21Z"/><path class="d" d="M346.35,89.01c43.95,0,87.91-.03,131.86,0,10.54,0,20.13,9.45,20.14,20.08,.06,55.27,.07,110.53,0,165.8-.01,11.94-9.59,20.87-22.6,21.05-12.82,.18-25.64-.03-38.45-.06,3.82-13.54,8.22-26.95,11.2-40.67,1.27-5.84,.79-12.74-1.07-18.44-4.16-12.75-16.76-20.95-32.71-19.82-11.34,.8-22.09,9.4-26.42,21.86-2.89,8.3-5.92,16.55-8.66,24.9-3.52,10.69-6.81,21.46-10.19,32.19-23.06-.02-46.12-.05-69.18-.07,4.6-9.74,9.14-19.52,13.9-29.18,.62-1.26,2.28-2.32,3.69-2.85,8.86-3.27,16.73-7.85,23.25-14.91,14.77-15.98,17.47-34.27,11.48-54.56-.66-2.22-.92-4.92-.31-7.11,3.22-11.62,2.98-23.02-2.1-33.99-1.75-3.77-1.22-6.77,.17-10.34,3.72-9.57,5.57-19.54,3.15-29.69-1.95-8.16-4.72-16.12-7.12-24.17Zm69.99,106.95c13.82,0,27.64,.02,41.46-.01,6-.02,9.56-3.08,9.4-7.92-.14-4.25-3.69-7.05-9.19-7.06-27.31-.03-54.61-.03-81.92,0-5.89,0-9.35,2.75-9.44,7.31-.09,4.58,3.77,7.66,9.73,7.67,13.32,.02,26.64,0,39.96,0Zm.82-59.03c-13.65,0-27.3-.02-40.95,0-5.95,.01-9.36,2.64-9.55,7.2-.19,4.58,3.68,7.78,9.66,7.79,27.13,.03,54.27,.03,81.4,0,6.04,0,9.57-2.99,9.49-7.84-.07-4.39-3.68-7.14-9.6-7.15-13.48-.03-26.97,0-40.45-.01Z"/><path class="k" d="M112.5,132.38c1.14-16.49,5.05-32.33,11.45-47.53,7.95-18.87,19.05-35.93,34.11-49.63,10.93-9.95,23.84-17.72,35.87-26.47,5.21,5.67,10.42,11.33,15.8,17.18,19.13-16.04,40.96-19.33,63.44-5.17,20.36,12.83,27.34,32.14,22.42,56.28,9.86,1.21,18.27,5.61,25.63,12.1,.96,1.35,1.89,2.72,2.87,4.05,8.66,11.8,11.84,24.96,7.84,39.04-1.85,6.51-5.9,12.4-9.07,18.8,13.09,13.64,14.45,24.75,4.33,39.03-1.8,.01-3.61,.1-5.41,.02-7.34-.3-14.79-.06-21.31-4.37-2.53-6.32-5.19-12.59-7.53-18.98-1.04-2.84-2.69-3.58-5.57-3.71-9.83-.42-18.27-4.29-25.61-10.85-6.75-6.04-10.98-13.58-13.45-21.91-.79-.12-1.15-.29-1.43-.21-19.65,6.3-37.3,2.69-53.22-10.38-1.08-.88-3.67-.89-5.08-.25-14,6.35-27.95,6.88-41.78-.19-2.8-1.43-4.27-.82-6.44,1.05-7.99,6.9-17.23,11.18-27.88,12.07Z"/><path class="g" d="M371.32,453.94c-2.55-1.01-5.03-2.62-7.65-2.92-8.43-.94-16.91-1.38-25.37-2.02,.53-1.91,.96-3.86,1.6-5.74,5.66-16.52,11.4-33.02,17.04-49.55,11.13-32.57,22.22-65.16,33.33-97.74,1.03-2.8,2.1-5.58,3.07-8.4,4.74-13.81,9.39-27.66,14.2-41.45,3.01-8.64,10.28-11.39,17.12-6.59,3.75,2.63,5.39,6.17,4.12,10.79-4.17,15.18-8.32,30.37-12.47,45.55-6.05,21.06-12.14,42.1-18.13,63.17-8.99,31.62-17.91,63.25-26.86,94.88Z"/><path class="t" d="M327.2,190.06c10.12-14.28,8.76-25.39-4.33-39.03,3.17-6.41,7.22-12.29,9.07-18.8,4-14.08,.82-27.24-7.84-39.04-.98-1.33-1.92-2.7-2.87-4.05,8.38-.04,16.75-.09,25.13-.13,2.41,8.05,5.18,16.01,7.12,24.17,2.42,10.15,.57,20.12-3.15,29.69-1.39,3.57-1.91,6.57-.17,10.34,5.08,10.96,5.32,22.36,2.1,33.99-.61,2.19-.35,4.88,.31,7.11,6,20.29,3.29,38.58-11.48,54.56-6.52,7.06-14.39,11.64-23.25,14.91-1.41,.52-3.07,1.58-3.69,2.85-4.76,9.67-9.3,19.44-13.9,29.19-8.3,.02-16.6,.04-24.91,.06,.1-.48,.07-1.07,.33-1.43,11.12-14.93,18.63-31.59,23.68-49.42,1.16,0,2.33-.04,3.49,.02,18.76,.99,36.22-19.14,31.44-37.71-1.53-5.97-4.69-11.52-7.1-17.27Z"/><path class="t" d="M416.3,295.88c4.16-15.18,8.31-30.37,12.47-45.55,1.27-4.62-.36-8.16-4.12-10.79-6.84-4.79-14.1-2.05-17.12,6.59-4.81,13.79-9.46,27.64-14.2,41.45-.97,2.82-2.04,5.6-3.07,8.4-6.95-.03-13.89-.07-20.84-.1,3.39-10.73,6.68-21.5,10.19-32.19,2.74-8.35,5.78-16.6,8.66-24.9,4.33-12.46,15.08-21.05,26.42-21.86,15.95-1.13,28.56,7.07,32.71,19.82,1.86,5.71,2.34,12.6,1.07,18.44-2.97,13.72-7.37,27.13-11.2,40.67-7,0-14,0-21,.02Z"/><path class="i" d="M321.25,457.11c-8.16,9.44-10.73,20.23-7.87,32.37,2.03,8.61,7.93,14.25,14.64,19.29-30.42,0-60.84,.02-91.25,0-1.49,0-2.98-.16-4.47-.25,.02-18.83,.06-37.66,.04-56.48,0-5.41-2.87-8.87-7.26-9.03-4.56-.16-7.71,3.44-7.72,9.06-.02,18.83,.02,37.66,.04,56.48-33.04-.02-66.08-.04-99.12-.06,.02-5.49,.04-10.98,.04-16.48,0-13.15,.05-26.3-.02-39.45-.03-5.03-3.78-9.59-7.61-9.57-4.44,.03-7.37,3.68-7.37,9.26,0,18.81,.03,37.62,.04,56.42-.7-.04-1.4-.08-2.1-.11-.23-.42-.35-1.09-.7-1.24-9.94-4.42-13.46-12.36-13.31-22.83,.25-16.65-.23-33.31,.21-49.95,.18-6.87,1.05-14,3.18-20.49,3.6-10.97,8.46-21.52,12.78-32.25,.29,.08,.59,.14,.88,.19,11.68,13.34,23.35,26.68,35.03,40.01,8.08,9.25,16.07,18.58,24.28,27.7,3.22,3.58,5.6,3.13,8.61-.47,3.83-4.58,7.93-8.94,11.8-13.49,3.86-4.54,7.6-9.18,11.39-13.78,1.45-1.34,3.03-2.56,4.32-4.04,15.91-18.19,31.78-36.41,47.66-54.63,2.92,3.14,6.11,6.06,8.71,9.45,16.86,21.99,23.96,47.05,23.19,74.58-.2,7.06,2.53,9.64,9.52,9.68,10.81,.06,21.62,.07,32.43,.1Z"/><path class="r" d="M8.37,190.08c6.61-.5,13.23-.91,19.83-1.55,4.46-.43,7-3.2,8.46-7.37,1.75-5.01,3.7-9.97,5.91-14.79,.63-1.37,2.44-2.99,3.81-3.09,21.23-1.53,33.86-13.48,40.36-32.4,8.28,.74,16.44,1.47,24.6,2.2-3.73,6.44-7.9,12.66-11.11,19.35-10.08,20.98-15.02,43.12-13.87,66.49-5.65,1.69-12,2.26-16.82,5.28-11.02,6.9-14.96,19.12-7.06,29.27,8.97,11.53,19.52,13.3,34.89,10.6,.53,2.05,.72,4.27,1.63,6.13,16.96,34.37,43.3,58.21,79.67,70.78,4.28,1.48,8.44,3.3,12.66,4.96-4.33,.64-8.66,1.29-12.99,1.93-7.61,.09-15.22,.18-22.84,.27-5.03-.75-10.05-1.49-15.08-2.24-6.72-2.01-13.45-4.02-20.17-6.03-13.85-6.13-27.08-13.18-38.81-23-19.2-16.07-33.24-35.59-41.41-59.28-.54-1.57-1.33-3.1-1.6-4.71-.97-5.88-3.74-7.82-10.2-8.24-11.75-.77-20.41-7.89-25.19-18.61-4.85-10.86-3.86-21.69,2.71-31.81,.89-1.37,1.75-2.76,2.62-4.15Z"/><path class="s" d="M103.43,381.82c-4.33,10.73-9.18,21.28-12.78,32.25-2.13,6.49-3,13.62-3.18,20.49-.44,16.64,.04,33.3-.21,49.95-.16,10.47,3.37,18.41,13.31,22.83,.35,.15,.47,.82,.7,1.24-7.81,.06-15.63,.24-23.44,.14-13.14-.17-21.45-8.62-21.5-21.7-.07-16.64-.38-33.28-.07-49.91,.49-26.64,10.11-49.88,27.45-69.97,1.23-1.43,3.05-2.35,4.59-3.5,5.05,6.06,10.09,12.12,15.14,18.17Z"/><path class="s" d="M217.39,508.57c-.02-18.83-.06-37.66-.04-56.48,0-5.62,3.16-9.22,7.72-9.06,4.38,.16,7.25,3.62,7.26,9.03,.02,18.83-.02,37.66-.04,56.48-4.97,.01-9.94,.02-14.9,.03Z"/><path class="s" d="M103.36,508.7c-.02-18.81-.04-37.62-.04-56.42,0-5.58,2.92-9.23,7.37-9.26,3.83-.03,7.59,4.54,7.61,9.57,.07,13.15,.03,26.3,.02,39.45,0,5.49-.03,10.98-.04,16.48-4.97,.06-9.94,.13-14.91,.19Z"/><path class="t" d="M103.43,381.82c-5.05-6.06-10.09-12.12-15.14-18.17,6.57-5.82,12.9-11.92,19.79-17.33,3.55-2.79,8.08-4.33,12.17-6.44,6.72,2.01,13.45,4.02,20.17,6.03-15.31,8.76-27.23,20.91-36.11,36.1-.3-.05-.59-.11-.88-.19Z"/><path class="n" d="M86.35,218.93c-1.15-23.37,3.8-45.51,13.87-66.49,3.21-6.69,7.38-12.91,11.11-19.35,.39-.24,.77-.48,1.16-.72,10.65-.89,19.89-5.16,27.88-12.07,2.17-1.88,3.64-2.49,6.44-1.05,13.83,7.06,27.78,6.54,41.78,.19,1.41-.64,4.01-.64,5.08,.25,15.91,13.07,33.57,16.68,53.22,10.38,.28-.09,.63,.08,1.43,.21,2.47,8.33,6.7,15.88,13.45,21.91,7.34,6.56,15.78,10.42,25.61,10.85,2.88,.12,4.53,.86,5.57,3.71,2.33,6.39,5,12.66,7.53,18.98,.45,3.42,1.05,6.83,1.33,10.26,.54,6.72,1.59,13.51,1.17,20.19-.62,9.66-2.36,19.24-3.62,28.86-5.04,17.84-12.55,34.49-23.68,49.42-.27,.36-.23,.95-.33,1.43-.86,.7-1.89,1.27-2.57,2.12-9.12,11.31-19.71,20.99-32.21,28.38-8.22,4.87-16.83,9.08-25.26,13.58l-23.98,5.99c-4.22-1.66-8.38-3.48-12.66-4.96-36.37-12.57-62.71-36.41-79.67-70.78-.92-1.86-1.11-4.08-1.64-6.13,12.04-2.51,21.21-12.37,19.66-22.97-.78-5.37-4.63-10.3-7.09-15.43,4.52-5.18,2.16-11.41,2.47-17.17,.27-4.96-2.89-8.24-7.14-8.38-4.38-.14-7.58,3.27-7.77,8.46-.14,3.8-.13,7.6-.19,11.4-3.65-.35-7.31-.71-10.96-1.06Zm139.11,6.97c-.61,.78-1.19,1.59-1.85,2.32-7.72,8.52-7.51,20.06,.53,28.12,10.82,10.86,31.19,12.18,43.41,2.83,11.91-9.11,11.72-24.67-.16-33.84-9.08-7.01-19.17-7.29-29.76-5.37-.08-4.32-.04-8.65-.26-12.97-.2-3.88-2.78-6.64-6.26-6.53-2.64,.09-7.02,2.11-7.48,4.03-1.71,7.13-3.29,14.68,1.83,21.4Zm-57.85,8.27c8.69,.15,15.88-3.18,21.67-9.56,2.89-3.19,2.9-7.53,.24-10.4-2.78-2.99-7.3-3.06-10.76-.15-8.34,7.01-13.79,7.06-22.04,.2-3.69-3.07-7.83-3.18-10.79-.28-3.27,3.2-3.29,7.4,.27,11.07,5.82,6.01,12.89,9.32,21.41,9.13Z"/><path class="o" d="M416.35,195.95c-13.32,0-26.64,.02-39.96,0-5.96-.01-9.82-3.1-9.73-7.67,.09-4.57,3.55-7.31,9.44-7.31,27.31-.02,54.61-.02,81.92,0,5.5,0,9.05,2.81,9.19,7.06,.16,4.85-3.4,7.91-9.4,7.92-13.82,.04-27.64,.01-41.46,.01Z"/><path class="q" d="M417.16,136.92c13.48,0,26.97-.02,40.45,0,5.91,.01,9.52,2.76,9.6,7.15,.08,4.85-3.45,7.83-9.49,7.84-27.13,.02-54.27,.03-81.4,0-5.98,0-9.84-3.21-9.66-7.79,.19-4.56,3.6-7.18,9.55-7.2,13.65-.03,27.3,0,40.95,0Z"/><path class="f" d="M299.36,245.02c1.26-9.62,3-19.2,3.62-28.86,.43-6.68-.63-13.46-1.17-20.19-.28-3.43-.88-6.84-1.33-10.26,6.52,4.31,13.97,4.07,21.31,4.37,1.8,.07,3.61-.01,5.41-.02,2.41,5.74,5.56,11.3,7.1,17.27,4.77,18.57-12.68,38.69-31.44,37.71-1.16-.06-2.33-.01-3.49-.02Z"/><path class="d" d="M215.31,339.96c12.22,5.69,23.34,12.89,32.09,23.35-15.88,18.22-31.75,36.44-47.66,54.63-1.29,1.48-2.87,2.7-4.32,4.04-1.69-7.01-3.28-14.05-5.1-21.03-1.31-5.02-4.42-8.34-9.81-9.08-.08-.63-.15-1.27-.23-1.9,5.49-2.45,7.73-6.99,7.92-12.69,.15-4.3-.14-8.62,.07-12.92,.39-7.8-2.35-13.57-9.95-16.48,4.33-.64,8.66-1.29,12.99-1.93,7.99-2,15.99-3.99,23.98-5.99Z"/><path class="k" d="M180.51,391.87c5.38,.74,8.5,4.06,9.81,9.08,1.82,6.98,3.41,14.02,5.1,21.03-3.79,4.6-7.52,9.25-11.39,13.78-3.87,4.55-7.97,8.91-11.8,13.49-3.01,3.6-5.39,4.05-8.61,.47-8.22-9.12-16.2-18.45-24.28-27.7,1.71-6.68,3.38-13.36,5.13-20.02,1.46-5.52,4.48-9.48,10.6-10.2,8.48,.02,16.96,.04,25.44,.06Z"/><path class="m" d="M155.07,391.81c-6.12,.71-9.14,4.68-10.6,10.2-1.76,6.66-3.43,13.35-5.13,20.02-11.68-13.34-23.35-26.68-35.03-40.01,8.88-15.19,20.8-27.34,36.11-36.1,5.03,.75,10.05,1.49,15.08,2.24-5.98,3.48-8.88,8.47-8.33,15.56,.36,4.6,.03,9.25,.09,13.88,.07,5.79,2.49,10.13,7.99,12.46l-.17,1.75Z"/><path class="p" d="M86.35,218.93c3.65,.35,7.31,.71,10.96,1.06,2.62,7.12,5.75,8.53,12.62,5.69,2.46,5.13,6.31,10.05,7.09,15.43,1.54,10.6-7.62,20.46-19.66,22.97-15.37,2.7-25.92,.94-34.89-10.6-7.9-10.15-3.96-22.37,7.06-29.27,4.82-3.02,11.17-3.6,16.82-5.28Z"/><path class="k" d="M155.24,390.06c-5.5-2.33-7.92-6.67-7.99-12.46-.06-4.63,.27-9.28-.09-13.88-.55-7.09,2.35-12.09,8.33-15.56,7.61-.09,15.23-.18,22.84-.27,7.59,2.91,10.33,8.68,9.95,16.48-.21,4.3,.08,8.62-.07,12.92-.2,5.7-2.43,10.24-7.92,12.69-8.35,.03-16.69,.06-25.04,.08Z"/><path class="p" d="M237.63,219.96c10.59-1.92,20.68-1.65,29.76,5.37,11.88,9.17,12.06,24.73,.16,33.84-12.22,9.35-32.59,8.03-43.41-2.83-8.04-8.07-8.25-19.61-.53-28.12,.66-.73,1.24-1.55,1.85-2.32,6.97,2.5,10.19,.93,12.17-5.94Z"/><path class="e" d="M167.6,234.16c-8.52,.19-15.58-3.11-21.41-9.12-3.56-3.68-3.54-7.87-.27-11.07,2.96-2.89,7.1-2.78,10.79,.28,8.26,6.86,13.7,6.81,22.04-.2,3.46-2.91,7.98-2.84,10.76,.15,2.66,2.87,2.65,7.22-.24,10.4-5.79,6.38-12.98,9.71-21.67,9.56Z"/><path class="l" d="M109.93,225.68c-6.87,2.84-10,1.43-12.62-5.69,.06-3.8,.05-7.6,.19-11.4,.19-5.19,3.39-8.6,7.77-8.46,4.24,.14,7.41,3.42,7.14,8.38-.31,5.77,2.05,12-2.47,17.17Z"/><path class="l" d="M237.63,219.96c-1.99,6.87-5.21,8.44-12.17,5.94-5.12-6.72-3.54-14.28-1.83-21.4,.46-1.92,4.84-3.94,7.48-4.03,3.48-.11,6.06,2.64,6.26,6.53,.22,4.32,.19,8.65,.26,12.97Z"/><path class="j" d="M155.24,390.06c8.35-.03,16.69-.06,25.04-.08,.08,.63,.15,1.27,.23,1.9-8.48-.02-16.96-.04-25.44-.06,.06-.58,.11-1.17,.17-1.75Z"/></g></g></g></svg>