<svg width="98" height="98" viewBox="0 0 98 98" fill="none" xmlns="http://www.w3.org/2000/svg">
<path d="M48.06 65.51C51.18 65.51 53.41 64.95 54.77 63.83C56.13 62.71 56.8 61.37 56.8 59.81C56.8 58.37 56.27 57.2 55.2 56.31C54.13 55.42 52.56 54.65 50.48 54.02L45.89 52.55C42.77 51.51 40.02 50.36 37.62 49.09C35.22 47.82 33.38 46.18 32.08 44.16C30.78 42.14 30.13 39.58 30.13 36.47C30.13 31.69 31.95 27.89 35.58 25.06C39.22 22.24 44.27 20.83 50.73 20.83C54.02 20.83 56.95 21.15 59.52 21.78C62.09 22.41 64.11 23.35 65.58 24.59C67.05 25.83 67.79 27.34 67.79 29.13C67.79 30.46 67.49 31.59 66.88 32.54C66.27 33.49 65.51 34.31 64.59 35C63.26 34.08 61.5 33.29 59.31 32.62C57.12 31.96 54.69 31.63 52.04 31.63C49.39 31.63 47.19 32.08 45.81 32.97C44.42 33.86 43.73 35.03 43.73 36.47C43.73 37.62 44.19 38.56 45.12 39.28C46.04 40 47.43 40.65 49.28 41.22L54.04 42.69C59.29 44.3 63.33 46.45 66.16 49.13C68.99 51.81 70.4 55.39 70.4 59.89C70.4 64.73 68.52 68.66 64.77 71.68C61.02 74.7 55.59 76.22 48.49 76.22C44.97 76.22 41.82 75.84 39.05 75.1C36.28 74.36 34.07 73.26 32.43 71.82C30.78 70.38 29.96 68.71 29.96 66.81C29.96 65.31 30.41 64.03 31.3 62.96C32.19 61.89 33.19 61.1 34.29 60.58C35.85 61.85 37.8 62.99 40.13 63.99C42.47 65 45.11 65.5 48.05 65.5L48.06 65.51Z" fill="#22A1EE"/>
<path d="M48.62 93.24C73.2629 93.24 93.24 73.2629 93.24 48.62C93.24 23.9771 73.2629 4 48.62 4C23.9771 4 4 23.9771 4 48.62C4 73.2629 23.9771 93.24 48.62 93.24Z" stroke="#FF6B35" stroke-width="8" stroke-miterlimit="10"/>
<path d="M72.02 78.61L86.66 93.25" stroke="#FF6B35"/>
<path d="M82.3636 93.8964L69.5536 81.0864C68.186 79.7189 68.2666 77.5358 69.5683 76.1182C70.8138 74.7618 73.2038 74.8309 74.5065 76.1336L76.3265 77.9536L89.1365 90.7636C90.504 92.1311 90.4235 94.3142 89.1217 95.7318C87.8762 97.0882 85.4862 97.0191 84.1836 95.7164L82.3636 93.8964Z" fill="#FF6B35" stroke="#FF6B35"/>
</svg>
