<?xml version="1.0" encoding="UTF-8"?><svg xmlns="http://www.w3.org/2000/svg" viewBox="0 0 102.81 102.81"><defs><style>.d{fill:#22a1ee;}.e{fill:none;stroke:#ff6b35;stroke-miterlimit:10;stroke-width:8px;}.f{fill:#ff6b35;}</style></defs><g id="a"/><g id="b"><g id="c"><path class="d" d="M50.81,69.35c3.31,0,5.68-.59,7.13-1.78s2.16-2.61,2.16-4.27c0-1.53-.56-2.77-1.7-3.72-1.14-.95-2.8-1.76-5.01-2.43l-4.88-1.56c-3.31-1.1-6.24-2.33-8.79-3.68-2.55-1.35-4.5-3.09-5.89-5.24-1.38-2.15-2.07-4.87-2.07-8.17,0-5.08,1.93-9.12,5.79-12.12,3.87-3,9.23-4.49,16.1-4.49,3.5,0,6.61,.34,9.34,1.01,2.73,.67,4.88,1.67,6.44,2.99,1.56,1.32,2.35,2.92,2.35,4.82,0,1.41-.32,2.61-.97,3.62-.65,1.01-1.46,1.88-2.43,2.61-1.41-.98-3.28-1.82-5.61-2.53-2.33-.7-4.91-1.05-7.72-1.05s-5.15,.48-6.62,1.42c-1.48,.95-2.21,2.19-2.21,3.72,0,1.22,.49,2.22,1.48,2.99,.98,.76,2.45,1.46,4.42,2.06l5.06,1.56c5.58,1.71,9.87,3.99,12.88,6.84,3.01,2.85,4.5,6.65,4.5,11.43,0,5.14-2,9.32-5.98,12.53-3.98,3.21-9.75,4.82-17.3,4.82-3.74,0-7.09-.4-10.03-1.19-2.94-.79-5.29-1.95-7.03-3.48-1.75-1.53-2.62-3.3-2.62-5.32,0-1.59,.48-2.95,1.42-4.09,.95-1.14,2.01-1.98,3.18-2.53,1.66,1.35,3.73,2.56,6.2,3.62,2.49,1.07,5.29,1.6,8.41,1.6h.01Z"/><path class="e" d="M51.4,98.81c26.18,0,47.4-21.22,47.4-47.4S77.58,4,51.4,4,4,25.22,4,51.4s21.22,47.4,47.4,47.4Z"/><path class="f" d="M91.74,99.35c.23,.76-.48,1.47-1.24,1.24l-19.11-5.68c-.73-.22-.96-1.13-.42-1.67l13.43-13.43c.54-.54,1.45-.3,1.67,.42l5.68,19.11Z"/></g></g></svg>